%TF.GenerationSoftware,Altium Limited,Altium Designer,25.1.2 (22)*%
G04 Layer_Physical_Order=2*
G04 Layer_Color=16711680*
%FSLAX26Y26*%
%MOIN*%
%TF.SameCoordinates,F7076460-2797-427A-AE81-16C54333DA03*%
%TF.FilePolarity,Positive*%
%TF.FileFunction,Copper,L2,Bot,Signal*%
%TF.Part,Single*%
G01*
G75*
%TA.AperFunction,FiducialPad,Global*%
%ADD28C,0.118110*%
%TA.AperFunction,Conductor*%
%ADD46C,0.010000*%
%ADD48C,0.039370*%
%TA.AperFunction,ComponentPad*%
%ADD49C,0.059843*%
%ADD50C,0.062992*%
G04:AMPARAMS|DCode=51|XSize=62.992mil|YSize=62.992mil|CornerRadius=15.748mil|HoleSize=0mil|Usage=FLASHONLY|Rotation=0.000|XOffset=0mil|YOffset=0mil|HoleType=Round|Shape=RoundedRectangle|*
%AMROUNDEDRECTD51*
21,1,0.062992,0.031496,0,0,0.0*
21,1,0.031496,0.062992,0,0,0.0*
1,1,0.031496,0.015748,-0.015748*
1,1,0.031496,-0.015748,-0.015748*
1,1,0.031496,-0.015748,0.015748*
1,1,0.031496,0.015748,0.015748*
%
%ADD51ROUNDEDRECTD51*%
%ADD52C,0.137795*%
G04:AMPARAMS|DCode=53|XSize=76.772mil|YSize=76.772mil|CornerRadius=19.193mil|HoleSize=0mil|Usage=FLASHONLY|Rotation=0.000|XOffset=0mil|YOffset=0mil|HoleType=Round|Shape=RoundedRectangle|*
%AMROUNDEDRECTD53*
21,1,0.076772,0.038386,0,0,0.0*
21,1,0.038386,0.076772,0,0,0.0*
1,1,0.038386,0.019193,-0.019193*
1,1,0.038386,-0.019193,-0.019193*
1,1,0.038386,-0.019193,0.019193*
1,1,0.038386,0.019193,0.019193*
%
%ADD53ROUNDEDRECTD53*%
%ADD54C,0.076772*%
%ADD55R,0.062992X0.062992*%
%ADD56R,0.061811X0.061811*%
%ADD57C,0.061811*%
%ADD58C,0.082677*%
%TA.AperFunction,ViaPad*%
%ADD59C,0.031496*%
G36*
X5675000Y205000D02*
X5000D01*
Y5065000D01*
X5675000D01*
Y205000D01*
D02*
G37*
%LPC*%
G36*
X2095256Y4959921D02*
X2084744D01*
X2074591Y4957201D01*
X2065488Y4951945D01*
X2058055Y4944512D01*
X2052799Y4935409D01*
X2050079Y4925256D01*
Y4925006D01*
X2033370Y4908297D01*
X2028887Y4910885D01*
X2029921Y4914744D01*
Y4925256D01*
X2027201Y4935409D01*
X2021945Y4944512D01*
X2014512Y4951945D01*
X2005409Y4957201D01*
X1995256Y4959921D01*
X1984744D01*
X1974591Y4957201D01*
X1965488Y4951945D01*
X1958055Y4944512D01*
X1952799Y4935409D01*
X1950079Y4925256D01*
Y4914744D01*
X1952799Y4904591D01*
X1958055Y4895488D01*
X1965488Y4888055D01*
X1974591Y4882799D01*
X1984744Y4880079D01*
X1995256D01*
X1999115Y4881113D01*
X2001703Y4876630D01*
X188828Y3063755D01*
X184070Y3057554D01*
X181079Y3050333D01*
X180059Y3042584D01*
Y1530000D01*
X181079Y1522251D01*
X184070Y1515029D01*
X188828Y1508828D01*
X242402Y1455255D01*
X237793Y1450646D01*
X234478Y1445684D01*
X233314Y1439831D01*
Y1349727D01*
X229397Y1345810D01*
X226007Y1339938D01*
X224252Y1333390D01*
Y1326610D01*
X226007Y1320062D01*
X229397Y1314190D01*
X234190Y1309397D01*
X240062Y1306007D01*
X246610Y1304252D01*
X253390D01*
X259938Y1306007D01*
X265810Y1309397D01*
X270603Y1314190D01*
X273993Y1320062D01*
X275748Y1326610D01*
Y1333390D01*
X273993Y1339938D01*
X270603Y1345810D01*
X265810Y1350603D01*
X263902Y1351705D01*
Y1432152D01*
X267936Y1435828D01*
X273777Y1435059D01*
X791863D01*
Y1120598D01*
X727436Y1056172D01*
X722678Y1049971D01*
X719687Y1042749D01*
X718667Y1035000D01*
X719687Y1027251D01*
X722678Y1020029D01*
X727436Y1013828D01*
X733637Y1009070D01*
X740859Y1006079D01*
X748608Y1005059D01*
X756357Y1006079D01*
X763578Y1009070D01*
X769779Y1013828D01*
X842976Y1087024D01*
X847734Y1093225D01*
X850725Y1100447D01*
X851745Y1108196D01*
Y1435059D01*
X971538D01*
X979288Y1436079D01*
X986509Y1439070D01*
X992710Y1443828D01*
X1276690Y1727808D01*
X1588921D01*
X1596670Y1728828D01*
X1603892Y1731820D01*
X1610093Y1736578D01*
X1614851Y1742779D01*
X1617842Y1750000D01*
X1618862Y1757749D01*
X1617842Y1765499D01*
X1614851Y1772720D01*
X1610093Y1778921D01*
X1603892Y1783679D01*
X1596670Y1786670D01*
X1588921Y1787691D01*
X1264288D01*
X1256538Y1786670D01*
X1249317Y1783679D01*
X1243116Y1778921D01*
X959136Y1494941D01*
X943469D01*
X941398Y1499941D01*
X946945Y1505488D01*
X952201Y1514591D01*
X954921Y1524744D01*
Y1535256D01*
X952201Y1545409D01*
X946945Y1554512D01*
X939512Y1561945D01*
X930409Y1567201D01*
X930294Y1567232D01*
Y1999764D01*
X1055383Y2124852D01*
X1055958Y2124698D01*
X1062737D01*
X1069286Y2126453D01*
X1075157Y2129843D01*
X1079951Y2134636D01*
X1083341Y2140508D01*
X1085096Y2147056D01*
Y2153836D01*
X1083341Y2160385D01*
X1079951Y2166256D01*
X1075157Y2171050D01*
X1069286Y2174439D01*
X1062737Y2176194D01*
X1055958D01*
X1049409Y2174439D01*
X1043538Y2171050D01*
X1038744Y2166256D01*
X1035354Y2160385D01*
X1033600Y2153836D01*
Y2147056D01*
X1033754Y2146481D01*
X904186Y2016913D01*
X900870Y2011951D01*
X899706Y2006098D01*
Y1567232D01*
X899591Y1567201D01*
X890488Y1561945D01*
X883055Y1554512D01*
X877799Y1545409D01*
X875079Y1535256D01*
Y1524744D01*
X877799Y1514591D01*
X883055Y1505488D01*
X888602Y1499941D01*
X886531Y1494941D01*
X843469D01*
X841398Y1499941D01*
X846945Y1505488D01*
X852201Y1514591D01*
X854921Y1524744D01*
Y1535256D01*
X852201Y1545409D01*
X846945Y1554512D01*
X839512Y1561945D01*
X830409Y1567201D01*
X820256Y1569921D01*
X809744D01*
X799591Y1567201D01*
X790488Y1561945D01*
X783055Y1554512D01*
X777799Y1545409D01*
X775079Y1535256D01*
Y1524744D01*
X777799Y1514591D01*
X783055Y1505488D01*
X788602Y1499941D01*
X786531Y1494941D01*
X743469D01*
X741398Y1499941D01*
X746945Y1505488D01*
X752201Y1514591D01*
X754921Y1524744D01*
Y1535256D01*
X752201Y1545409D01*
X746945Y1554512D01*
X739512Y1561945D01*
X730409Y1567201D01*
X720256Y1569921D01*
X709744D01*
X699591Y1567201D01*
X690488Y1561945D01*
X683055Y1554512D01*
X677799Y1545409D01*
X675079Y1535256D01*
Y1524744D01*
X677799Y1514591D01*
X683055Y1505488D01*
X688602Y1499941D01*
X686531Y1494941D01*
X643469D01*
X641398Y1499941D01*
X646945Y1505488D01*
X652201Y1514591D01*
X654921Y1524744D01*
Y1535256D01*
X652201Y1545409D01*
X646945Y1554512D01*
X639512Y1561945D01*
X630409Y1567201D01*
X620256Y1569921D01*
X609744D01*
X599591Y1567201D01*
X590488Y1561945D01*
X583055Y1554512D01*
X577799Y1545409D01*
X575079Y1535256D01*
Y1524744D01*
X577799Y1514591D01*
X583055Y1505488D01*
X588602Y1499941D01*
X586531Y1494941D01*
X543469D01*
X541398Y1499941D01*
X546945Y1505488D01*
X552201Y1514591D01*
X554921Y1524744D01*
Y1535256D01*
X552201Y1545409D01*
X546945Y1554512D01*
X539512Y1561945D01*
X530409Y1567201D01*
X520256Y1569921D01*
X509744D01*
X499591Y1567201D01*
X490488Y1561945D01*
X483055Y1554512D01*
X477799Y1545409D01*
X475079Y1535256D01*
Y1524744D01*
X477799Y1514591D01*
X483055Y1505488D01*
X488602Y1499941D01*
X486531Y1494941D01*
X443469D01*
X441398Y1499941D01*
X446945Y1505488D01*
X452201Y1514591D01*
X454921Y1524744D01*
Y1535256D01*
X452201Y1545409D01*
X446945Y1554512D01*
X439512Y1561945D01*
X430409Y1567201D01*
X420256Y1569921D01*
X409744D01*
X399591Y1567201D01*
X390488Y1561945D01*
X383055Y1554512D01*
X377799Y1545409D01*
X375079Y1535256D01*
Y1524744D01*
X377799Y1514591D01*
X383055Y1505488D01*
X388602Y1499941D01*
X386531Y1494941D01*
X343469D01*
X341398Y1499941D01*
X346945Y1505488D01*
X352201Y1514591D01*
X354921Y1524744D01*
Y1535256D01*
X352201Y1545409D01*
X346945Y1554512D01*
X339512Y1561945D01*
X330409Y1567201D01*
X320256Y1569921D01*
X309744D01*
X299591Y1567201D01*
X290488Y1561945D01*
X283055Y1554512D01*
X277799Y1545409D01*
X275079Y1535256D01*
Y1524744D01*
X277799Y1514591D01*
X281865Y1507550D01*
X277864Y1504479D01*
X239941Y1542402D01*
Y3030182D01*
X2089838Y4880079D01*
X2095256D01*
X2105409Y4882799D01*
X2114512Y4888055D01*
X2121945Y4895488D01*
X2127201Y4904591D01*
X2129921Y4914744D01*
Y4925256D01*
X2127201Y4935409D01*
X2121945Y4944512D01*
X2114512Y4951945D01*
X2105409Y4957201D01*
X2095256Y4959921D01*
D02*
G37*
G36*
X1895256D02*
X1884744D01*
X1874591Y4957201D01*
X1865488Y4951945D01*
X1858055Y4944512D01*
X1852799Y4935409D01*
X1850079Y4925256D01*
Y4914744D01*
X1852799Y4904591D01*
X1858055Y4895488D01*
X1865488Y4888055D01*
X1874591Y4882799D01*
X1884744Y4880079D01*
X1895256D01*
X1905409Y4882799D01*
X1914512Y4888055D01*
X1921945Y4895488D01*
X1927201Y4904591D01*
X1929921Y4914744D01*
Y4925256D01*
X1927201Y4935409D01*
X1921945Y4944512D01*
X1914512Y4951945D01*
X1905409Y4957201D01*
X1895256Y4959921D01*
D02*
G37*
G36*
X1795256D02*
X1784744D01*
X1774591Y4957201D01*
X1765488Y4951945D01*
X1758055Y4944512D01*
X1752799Y4935409D01*
X1750079Y4925256D01*
Y4914744D01*
X1752799Y4904591D01*
X1758055Y4895488D01*
X1765488Y4888055D01*
X1774591Y4882799D01*
X1784744Y4880079D01*
X1795256D01*
X1805409Y4882799D01*
X1814512Y4888055D01*
X1821945Y4895488D01*
X1827201Y4904591D01*
X1829921Y4914744D01*
Y4925256D01*
X1827201Y4935409D01*
X1821945Y4944512D01*
X1814512Y4951945D01*
X1805409Y4957201D01*
X1795256Y4959921D01*
D02*
G37*
G36*
X1695256D02*
X1684744D01*
X1674591Y4957201D01*
X1665488Y4951945D01*
X1658055Y4944512D01*
X1652799Y4935409D01*
X1650079Y4925256D01*
Y4914744D01*
X1652799Y4904591D01*
X1658055Y4895488D01*
X1665488Y4888055D01*
X1674591Y4882799D01*
X1684744Y4880079D01*
X1695256D01*
X1705409Y4882799D01*
X1714512Y4888055D01*
X1721945Y4895488D01*
X1727201Y4904591D01*
X1729921Y4914744D01*
Y4925256D01*
X1727201Y4935409D01*
X1721945Y4944512D01*
X1714512Y4951945D01*
X1705409Y4957201D01*
X1695256Y4959921D01*
D02*
G37*
G36*
X1595256D02*
X1584744D01*
X1574591Y4957201D01*
X1565488Y4951945D01*
X1558055Y4944512D01*
X1552799Y4935409D01*
X1550079Y4925256D01*
Y4914744D01*
X1552799Y4904591D01*
X1558055Y4895488D01*
X1565488Y4888055D01*
X1574591Y4882799D01*
X1584744Y4880079D01*
X1595256D01*
X1605409Y4882799D01*
X1614512Y4888055D01*
X1621945Y4895488D01*
X1627201Y4904591D01*
X1629921Y4914744D01*
Y4925256D01*
X1627201Y4935409D01*
X1621945Y4944512D01*
X1614512Y4951945D01*
X1605409Y4957201D01*
X1595256Y4959921D01*
D02*
G37*
G36*
X1495256D02*
X1484744D01*
X1474591Y4957201D01*
X1465488Y4951945D01*
X1458055Y4944512D01*
X1452799Y4935409D01*
X1450079Y4925256D01*
Y4914744D01*
X1452799Y4904591D01*
X1458055Y4895488D01*
X1465488Y4888055D01*
X1474591Y4882799D01*
X1484744Y4880079D01*
X1495256D01*
X1505409Y4882799D01*
X1514512Y4888055D01*
X1521945Y4895488D01*
X1527201Y4904591D01*
X1529921Y4914744D01*
Y4925256D01*
X1527201Y4935409D01*
X1521945Y4944512D01*
X1514512Y4951945D01*
X1505409Y4957201D01*
X1495256Y4959921D01*
D02*
G37*
G36*
X1395256D02*
X1384744D01*
X1374591Y4957201D01*
X1365488Y4951945D01*
X1358055Y4944512D01*
X1352799Y4935409D01*
X1350079Y4925256D01*
Y4914744D01*
X1352799Y4904591D01*
X1358055Y4895488D01*
X1365488Y4888055D01*
X1374591Y4882799D01*
X1384744Y4880079D01*
X1395256D01*
X1405409Y4882799D01*
X1414512Y4888055D01*
X1421945Y4895488D01*
X1427201Y4904591D01*
X1429921Y4914744D01*
Y4925256D01*
X1427201Y4935409D01*
X1421945Y4944512D01*
X1414512Y4951945D01*
X1405409Y4957201D01*
X1395256Y4959921D01*
D02*
G37*
G36*
X1295256D02*
X1284744D01*
X1274591Y4957201D01*
X1265488Y4951945D01*
X1258055Y4944512D01*
X1252799Y4935409D01*
X1250079Y4925256D01*
Y4914744D01*
X1252799Y4904591D01*
X1258055Y4895488D01*
X1265488Y4888055D01*
X1274591Y4882799D01*
X1284744Y4880079D01*
X1295256D01*
X1305409Y4882799D01*
X1314512Y4888055D01*
X1321945Y4895488D01*
X1327201Y4904591D01*
X1329921Y4914744D01*
Y4925256D01*
X1327201Y4935409D01*
X1321945Y4944512D01*
X1314512Y4951945D01*
X1305409Y4957201D01*
X1295256Y4959921D01*
D02*
G37*
G36*
X1195256D02*
X1184744D01*
X1174591Y4957201D01*
X1165488Y4951945D01*
X1158055Y4944512D01*
X1152799Y4935409D01*
X1150079Y4925256D01*
Y4914744D01*
X1152799Y4904591D01*
X1158055Y4895488D01*
X1165488Y4888055D01*
X1174591Y4882799D01*
X1184744Y4880079D01*
X1195256D01*
X1205409Y4882799D01*
X1214512Y4888055D01*
X1221945Y4895488D01*
X1227201Y4904591D01*
X1229921Y4914744D01*
Y4925256D01*
X1227201Y4935409D01*
X1221945Y4944512D01*
X1214512Y4951945D01*
X1205409Y4957201D01*
X1195256Y4959921D01*
D02*
G37*
G36*
X1095256D02*
X1084744D01*
X1074591Y4957201D01*
X1065488Y4951945D01*
X1058055Y4944512D01*
X1052799Y4935409D01*
X1050079Y4925256D01*
Y4914744D01*
X1052799Y4904591D01*
X1058055Y4895488D01*
X1065488Y4888055D01*
X1074591Y4882799D01*
X1084744Y4880079D01*
X1095256D01*
X1105409Y4882799D01*
X1114512Y4888055D01*
X1121945Y4895488D01*
X1127201Y4904591D01*
X1129921Y4914744D01*
Y4925256D01*
X1127201Y4935409D01*
X1121945Y4944512D01*
X1114512Y4951945D01*
X1105409Y4957201D01*
X1095256Y4959921D01*
D02*
G37*
G36*
X995256D02*
X984744D01*
X974591Y4957201D01*
X965488Y4951945D01*
X958055Y4944512D01*
X952799Y4935409D01*
X950079Y4925256D01*
Y4914744D01*
X952799Y4904591D01*
X958055Y4895488D01*
X965488Y4888055D01*
X974591Y4882799D01*
X984744Y4880079D01*
X995256D01*
X1005409Y4882799D01*
X1014512Y4888055D01*
X1021945Y4895488D01*
X1027201Y4904591D01*
X1029921Y4914744D01*
Y4925256D01*
X1027201Y4935409D01*
X1021945Y4944512D01*
X1014512Y4951945D01*
X1005409Y4957201D01*
X995256Y4959921D01*
D02*
G37*
G36*
X795256D02*
X784744D01*
X774591Y4957201D01*
X765488Y4951945D01*
X758055Y4944512D01*
X752799Y4935409D01*
X750079Y4925256D01*
Y4914744D01*
X752799Y4904591D01*
X758055Y4895488D01*
X765488Y4888055D01*
X774591Y4882799D01*
X784744Y4880079D01*
X795256D01*
X805409Y4882799D01*
X814512Y4888055D01*
X821945Y4895488D01*
X827201Y4904591D01*
X829921Y4914744D01*
Y4925256D01*
X827201Y4935409D01*
X821945Y4944512D01*
X814512Y4951945D01*
X805409Y4957201D01*
X795256Y4959921D01*
D02*
G37*
G36*
X4057771Y4998898D02*
X4042229D01*
X4026986Y4995866D01*
X4012628Y4989918D01*
X3999706Y4981284D01*
X3988716Y4970294D01*
X3980082Y4957372D01*
X3974134Y4943014D01*
X3971102Y4927771D01*
Y4912229D01*
X3974134Y4896986D01*
X3980082Y4882628D01*
X3988716Y4869706D01*
X3999706Y4858716D01*
X4012628Y4850082D01*
X4026986Y4844134D01*
X4042229Y4841102D01*
X4057771D01*
X4073014Y4844134D01*
X4087372Y4850082D01*
X4100294Y4858716D01*
X4111284Y4869706D01*
X4119918Y4882628D01*
X4125866Y4896986D01*
X4128898Y4912229D01*
Y4927771D01*
X4125866Y4943014D01*
X4119918Y4957372D01*
X4111284Y4970294D01*
X4100294Y4981284D01*
X4087372Y4989918D01*
X4073014Y4995866D01*
X4057771Y4998898D01*
D02*
G37*
G36*
X397771D02*
X382229D01*
X366986Y4995866D01*
X352628Y4989918D01*
X339706Y4981284D01*
X328716Y4970294D01*
X320082Y4957372D01*
X314134Y4943014D01*
X311102Y4927771D01*
Y4912229D01*
X314134Y4896986D01*
X320082Y4882628D01*
X328716Y4869706D01*
X339706Y4858716D01*
X352628Y4850082D01*
X366986Y4844134D01*
X382229Y4841102D01*
X397771D01*
X413014Y4844134D01*
X427372Y4850082D01*
X440294Y4858716D01*
X451284Y4869706D01*
X459918Y4882628D01*
X465866Y4896986D01*
X468898Y4912229D01*
Y4927771D01*
X465866Y4943014D01*
X459918Y4957372D01*
X451284Y4970294D01*
X440294Y4981284D01*
X427372Y4989918D01*
X413014Y4995866D01*
X397771Y4998898D01*
D02*
G37*
G36*
X5504296Y5013110D02*
X5485704D01*
X5467342Y5010202D01*
X5449661Y5004457D01*
X5433097Y4996017D01*
X5418056Y4985089D01*
X5404911Y4971944D01*
X5393983Y4956903D01*
X5385543Y4940339D01*
X5379798Y4922658D01*
X5376890Y4904296D01*
Y4885704D01*
X5379798Y4867342D01*
X5385543Y4849661D01*
X5393983Y4833097D01*
X5404911Y4818056D01*
X5418056Y4804911D01*
X5433097Y4793983D01*
X5449661Y4785543D01*
X5467342Y4779798D01*
X5485704Y4776890D01*
X5504296D01*
X5522658Y4779798D01*
X5540339Y4785543D01*
X5556903Y4793983D01*
X5571944Y4804911D01*
X5585089Y4818056D01*
X5596017Y4833097D01*
X5604457Y4849661D01*
X5610202Y4867342D01*
X5613110Y4885704D01*
Y4904296D01*
X5610202Y4922658D01*
X5604457Y4940339D01*
X5596017Y4956903D01*
X5585089Y4971944D01*
X5571944Y4985089D01*
X5556903Y4996017D01*
X5540339Y5004457D01*
X5522658Y5010202D01*
X5504296Y5013110D01*
D02*
G37*
G36*
X149296D02*
X130704D01*
X112343Y5010202D01*
X94661Y5004457D01*
X78097Y4996017D01*
X63056Y4985089D01*
X49911Y4971944D01*
X38983Y4956903D01*
X30543Y4940339D01*
X24798Y4922658D01*
X21890Y4904296D01*
Y4885704D01*
X24798Y4867342D01*
X30543Y4849661D01*
X38983Y4833097D01*
X49911Y4818056D01*
X63056Y4804911D01*
X78097Y4793983D01*
X94661Y4785543D01*
X112343Y4779798D01*
X130704Y4776890D01*
X149296D01*
X167657Y4779798D01*
X185339Y4785543D01*
X201903Y4793983D01*
X216944Y4804911D01*
X230089Y4818056D01*
X241017Y4833097D01*
X249457Y4849661D01*
X255202Y4867342D01*
X258110Y4885704D01*
Y4904296D01*
X255202Y4922658D01*
X249457Y4940339D01*
X241017Y4956903D01*
X230089Y4971944D01*
X216944Y4985089D01*
X201903Y4996017D01*
X185339Y5004457D01*
X167657Y5010202D01*
X149296Y5013110D01*
D02*
G37*
G36*
X5562771Y4423898D02*
X5547229D01*
X5531986Y4420866D01*
X5517628Y4414918D01*
X5504706Y4406284D01*
X5493716Y4395294D01*
X5485082Y4382372D01*
X5479134Y4368014D01*
X5476102Y4352771D01*
Y4337229D01*
X5479134Y4321986D01*
X5485082Y4307628D01*
X5493716Y4294706D01*
X5504706Y4283716D01*
X5517628Y4275082D01*
X5531986Y4269134D01*
X5547229Y4266102D01*
X5562771D01*
X5578014Y4269134D01*
X5592372Y4275082D01*
X5605294Y4283716D01*
X5616284Y4294706D01*
X5624918Y4307628D01*
X5630866Y4321986D01*
X5633898Y4337229D01*
Y4352771D01*
X5630866Y4368014D01*
X5624918Y4382372D01*
X5616284Y4395294D01*
X5605294Y4406284D01*
X5592372Y4414918D01*
X5578014Y4420866D01*
X5562771Y4423898D01*
D02*
G37*
G36*
X132771D02*
X117229D01*
X101986Y4420866D01*
X87628Y4414918D01*
X74706Y4406284D01*
X63716Y4395294D01*
X55082Y4382372D01*
X49134Y4368014D01*
X46102Y4352771D01*
Y4337229D01*
X49134Y4321986D01*
X55082Y4307628D01*
X63716Y4294706D01*
X74706Y4283716D01*
X87628Y4275082D01*
X101986Y4269134D01*
X117229Y4266102D01*
X132771D01*
X148014Y4269134D01*
X162372Y4275082D01*
X175294Y4283716D01*
X186284Y4294706D01*
X194918Y4307628D01*
X200866Y4321986D01*
X203898Y4337229D01*
Y4352771D01*
X200866Y4368014D01*
X194918Y4382372D01*
X186284Y4395294D01*
X175294Y4406284D01*
X162372Y4414918D01*
X148014Y4420866D01*
X132771Y4423898D01*
D02*
G37*
G36*
X5135610Y2821439D02*
X5128831D01*
X5122282Y2819684D01*
X5116411Y2816294D01*
X5111617Y2811500D01*
X5108227Y2805629D01*
X5106472Y2799080D01*
Y2792301D01*
X5106627Y2791726D01*
X5049186Y2734285D01*
X5045870Y2729323D01*
X5044706Y2723470D01*
Y2580901D01*
X5044190Y2580604D01*
X5039396Y2575810D01*
X5036007Y2569938D01*
X5034252Y2563390D01*
Y2556610D01*
X5036007Y2550062D01*
X5039396Y2544190D01*
X5044190Y2539396D01*
X5050062Y2536007D01*
X5056610Y2534252D01*
X5063390D01*
X5069938Y2536007D01*
X5075810Y2539396D01*
X5080604Y2544190D01*
X5083993Y2550062D01*
X5085748Y2556610D01*
Y2563390D01*
X5083993Y2569938D01*
X5080604Y2575810D01*
X5075810Y2580604D01*
X5075294Y2580901D01*
Y2717135D01*
X5128255Y2770097D01*
X5128831Y2769943D01*
X5135610D01*
X5142159Y2771697D01*
X5148030Y2775087D01*
X5152824Y2779881D01*
X5156214Y2785752D01*
X5157968Y2792301D01*
Y2799080D01*
X5156214Y2805629D01*
X5152824Y2811500D01*
X5148030Y2816294D01*
X5142159Y2819684D01*
X5135610Y2821439D01*
D02*
G37*
G36*
X4057771Y2833898D02*
X4042229D01*
X4026986Y2830866D01*
X4012628Y2824918D01*
X3999706Y2816284D01*
X3988716Y2805294D01*
X3980082Y2792372D01*
X3974134Y2778014D01*
X3971102Y2762771D01*
Y2747229D01*
X3974134Y2731986D01*
X3980082Y2717628D01*
X3988716Y2704706D01*
X3999706Y2693716D01*
X4012628Y2685082D01*
X4026986Y2679134D01*
X4042229Y2676102D01*
X4057771D01*
X4073014Y2679134D01*
X4087372Y2685082D01*
X4100294Y2693716D01*
X4111284Y2704706D01*
X4119918Y2717628D01*
X4125866Y2731986D01*
X4128898Y2747229D01*
Y2762771D01*
X4125866Y2778014D01*
X4119918Y2792372D01*
X4111284Y2805294D01*
X4100294Y2816284D01*
X4087372Y2824918D01*
X4073014Y2830866D01*
X4057771Y2833898D01*
D02*
G37*
G36*
X397771D02*
X382229D01*
X366986Y2830866D01*
X352628Y2824918D01*
X339706Y2816284D01*
X328716Y2805294D01*
X320082Y2792372D01*
X314134Y2778014D01*
X311102Y2762771D01*
Y2747229D01*
X314134Y2731986D01*
X320082Y2717628D01*
X328716Y2704706D01*
X339706Y2693716D01*
X352628Y2685082D01*
X366986Y2679134D01*
X382229Y2676102D01*
X397771D01*
X413014Y2679134D01*
X427372Y2685082D01*
X440294Y2693716D01*
X451284Y2704706D01*
X459918Y2717628D01*
X465866Y2731986D01*
X468897Y2747229D01*
Y2762771D01*
X465866Y2778014D01*
X459918Y2792372D01*
X451284Y2805294D01*
X440294Y2816284D01*
X427372Y2824918D01*
X413014Y2830866D01*
X397771Y2833898D01*
D02*
G37*
G36*
X4897248Y2704606D02*
X4890468D01*
X4883920Y2702852D01*
X4878049Y2699462D01*
X4873255Y2694668D01*
X4869865Y2688797D01*
X4868110Y2682248D01*
Y2675468D01*
X4868264Y2674893D01*
X4863368Y2669997D01*
X4804703D01*
X4798850Y2668833D01*
X4793889Y2665517D01*
X4249925Y2121554D01*
X3930914D01*
X3925061Y2120390D01*
X3920099Y2117074D01*
X3870228Y2067202D01*
X3866912Y2062241D01*
X3865748Y2056388D01*
Y2040367D01*
X3865232Y2040069D01*
X3860439Y2035275D01*
X3857049Y2029404D01*
X3855294Y2022855D01*
Y2016075D01*
X3857049Y2009527D01*
X3860439Y2003656D01*
X3865232Y1998862D01*
X3871104Y1995472D01*
X3877652Y1993717D01*
X3884432D01*
X3890980Y1995472D01*
X3896852Y1998862D01*
X3901646Y2003656D01*
X3905035Y2009527D01*
X3906790Y2016075D01*
Y2022855D01*
X3905035Y2029404D01*
X3901646Y2035275D01*
X3896852Y2040069D01*
X3896336Y2040367D01*
Y2050053D01*
X3922642Y2076359D01*
X3927642Y2074288D01*
Y2072358D01*
X3929396Y2065810D01*
X3932786Y2059938D01*
X3937580Y2055144D01*
X3943451Y2051755D01*
X3950000Y2050000D01*
X3956780D01*
X3957355Y2050154D01*
X3968323Y2039186D01*
X3973285Y2035870D01*
X3979138Y2034706D01*
X4240000D01*
X4245853Y2035870D01*
X4250814Y2039186D01*
X4835132Y2623503D01*
X4888587D01*
X4888885Y2622988D01*
X4893679Y2618194D01*
X4899550Y2614804D01*
X4906099Y2613049D01*
X4912879D01*
X4919427Y2614804D01*
X4925298Y2618194D01*
X4930092Y2622988D01*
X4933482Y2628859D01*
X4935237Y2635408D01*
Y2642187D01*
X4933482Y2648736D01*
X4930092Y2654607D01*
X4925298Y2659401D01*
X4919427Y2662791D01*
X4918965Y2662915D01*
X4917051Y2667534D01*
X4917852Y2668920D01*
X4919606Y2675468D01*
Y2682248D01*
X4917852Y2688797D01*
X4914462Y2694668D01*
X4909668Y2699462D01*
X4903797Y2702852D01*
X4897248Y2704606D01*
D02*
G37*
G36*
X3678390Y2660748D02*
X3671610D01*
X3665062Y2658993D01*
X3659190Y2655604D01*
X3654396Y2650810D01*
X3651007Y2644938D01*
X3649252Y2638390D01*
Y2631610D01*
X3651007Y2625062D01*
X3654396Y2619190D01*
X3659190Y2614396D01*
X3659706Y2614099D01*
Y2175901D01*
X3659190Y2175604D01*
X3654396Y2170810D01*
X3651007Y2164938D01*
X3650045Y2161349D01*
X3644468Y2159855D01*
X3458508Y2345814D01*
X3453546Y2349130D01*
X3447694Y2350294D01*
X3087936D01*
X3087278Y2355294D01*
X3089938Y2356007D01*
X3095810Y2359396D01*
X3100604Y2364190D01*
X3103993Y2370062D01*
X3105748Y2376610D01*
Y2383390D01*
X3105594Y2383965D01*
X3185354Y2463725D01*
X3190062Y2461007D01*
X3196610Y2459252D01*
X3203390D01*
X3209938Y2461007D01*
X3215810Y2464396D01*
X3220604Y2469190D01*
X3223993Y2475062D01*
X3225748Y2481610D01*
Y2488390D01*
X3223993Y2494938D01*
X3220604Y2500810D01*
X3215810Y2505604D01*
X3209938Y2508993D01*
X3203390Y2510748D01*
X3196610D01*
X3190062Y2508993D01*
X3184190Y2505604D01*
X3179396Y2500810D01*
X3176184Y2495245D01*
X3175034Y2495017D01*
X3170073Y2491701D01*
X3083965Y2405594D01*
X3083390Y2405748D01*
X3076610D01*
X3070062Y2403993D01*
X3064190Y2400604D01*
X3059396Y2395810D01*
X3056007Y2389938D01*
X3054252Y2383390D01*
Y2376610D01*
X3056007Y2370062D01*
X3059396Y2364190D01*
X3064190Y2359396D01*
X3070062Y2356007D01*
X3072722Y2355294D01*
X3072064Y2350294D01*
X3028778D01*
X3026707Y2355294D01*
X3028993Y2357580D01*
X3032383Y2363452D01*
X3034138Y2370000D01*
Y2376780D01*
X3032383Y2383328D01*
X3028993Y2389200D01*
X3024200Y2393993D01*
X3027088Y2397817D01*
X3172630Y2543360D01*
X3177519Y2543363D01*
X3182313Y2538569D01*
X3188184Y2535180D01*
X3194733Y2533425D01*
X3201512D01*
X3208061Y2535180D01*
X3213932Y2538569D01*
X3218726Y2543363D01*
X3222116Y2549234D01*
X3223870Y2555783D01*
Y2562563D01*
X3222116Y2569111D01*
X3218726Y2574983D01*
X3213932Y2579776D01*
X3208061Y2583166D01*
X3201512Y2584921D01*
X3194733D01*
X3188184Y2583166D01*
X3182313Y2579776D01*
X3177519Y2574983D01*
X3177221Y2574467D01*
X3166815D01*
X3160962Y2573302D01*
X3156000Y2569987D01*
X2997575Y2411562D01*
X2994260Y2406601D01*
X2993096Y2400748D01*
Y2394291D01*
X2992580Y2393993D01*
X2987786Y2389200D01*
X2984397Y2383328D01*
X2982642Y2376780D01*
Y2370000D01*
X2984397Y2363452D01*
X2987786Y2357580D01*
X2990073Y2355294D01*
X2988002Y2350294D01*
X2980000D01*
X2974147Y2349130D01*
X2969186Y2345814D01*
X2933965Y2310594D01*
X2933390Y2310748D01*
X2926610D01*
X2920062Y2308993D01*
X2914190Y2305604D01*
X2909396Y2300810D01*
X2906007Y2294938D01*
X2904252Y2288390D01*
Y2281610D01*
X2906007Y2275062D01*
X2909396Y2269190D01*
X2914190Y2264396D01*
X2920062Y2261007D01*
X2926610Y2259252D01*
X2933390D01*
X2939938Y2261007D01*
X2945810Y2264396D01*
X2949348Y2267935D01*
X2952500Y2268719D01*
X2955652Y2267935D01*
X2959190Y2264396D01*
X2965062Y2261007D01*
X2971610Y2259252D01*
X2978390D01*
X2984938Y2261007D01*
X2990810Y2264396D01*
X2995604Y2269190D01*
X2998993Y2275062D01*
X3000748Y2281610D01*
Y2288390D01*
X3000594Y2288965D01*
X3011335Y2299706D01*
X3423665D01*
X3508077Y2215294D01*
X3506006Y2210294D01*
X2921335D01*
X2510814Y2620814D01*
X2505853Y2624130D01*
X2500000Y2625294D01*
X1410000D01*
X1404147Y2624130D01*
X1399186Y2620814D01*
X1103665Y2325294D01*
X766335D01*
X742657Y2348972D01*
X743205Y2349521D01*
X748668Y2358983D01*
X751496Y2369537D01*
Y2380463D01*
X748668Y2391017D01*
X743205Y2400479D01*
X735479Y2408205D01*
X726017Y2413668D01*
X715463Y2416496D01*
X704537D01*
X693983Y2413668D01*
X684521Y2408205D01*
X676795Y2400479D01*
X671332Y2391017D01*
X668504Y2380463D01*
Y2369537D01*
X671332Y2358983D01*
X676795Y2349521D01*
X684521Y2341795D01*
X693983Y2336332D01*
X704537Y2333504D01*
X714867D01*
X749186Y2299186D01*
X754147Y2295870D01*
X760000Y2294706D01*
X1110000D01*
X1115853Y2295870D01*
X1120814Y2299186D01*
X1416335Y2594706D01*
X2493665D01*
X2904186Y2184186D01*
X2909147Y2180870D01*
X2915000Y2179706D01*
X3505971D01*
X3747037Y1938640D01*
X3744966Y1933640D01*
X3723123D01*
X3500949Y2155814D01*
X3495987Y2159130D01*
X3490135Y2160294D01*
X3100901D01*
X3100604Y2160810D01*
X3095810Y2165604D01*
X3089938Y2168993D01*
X3083390Y2170748D01*
X3076610D01*
X3070062Y2168993D01*
X3064190Y2165604D01*
X3059396Y2160810D01*
X3056007Y2154938D01*
X3054252Y2148390D01*
Y2141610D01*
X3056007Y2135062D01*
X3059396Y2129190D01*
X3064190Y2124396D01*
X3070062Y2121007D01*
X3076610Y2119252D01*
X3083390D01*
X3089938Y2121007D01*
X3095810Y2124396D01*
X3100604Y2129190D01*
X3100901Y2129706D01*
X3483800D01*
X3654878Y1958628D01*
X3653401Y1953034D01*
X3649190Y1950603D01*
X3644396Y1945810D01*
X3644099Y1945294D01*
X2825000D01*
X2819147Y1944130D01*
X2814186Y1940814D01*
X2752161Y1878789D01*
X2751585Y1878944D01*
X2745552D01*
X2744206Y1880762D01*
X2743237Y1883699D01*
X2838968Y1979431D01*
X2972195D01*
X2972492Y1978915D01*
X2977286Y1974121D01*
X2983158Y1970732D01*
X2989706Y1968977D01*
X2996486D01*
X3003034Y1970732D01*
X3008906Y1974121D01*
X3013700Y1978915D01*
X3017089Y1984786D01*
X3018844Y1991335D01*
Y1998115D01*
X3017089Y2004663D01*
X3014178Y2009706D01*
X3015851Y2014706D01*
X3468665D01*
X3484406Y1998965D01*
X3484252Y1998390D01*
Y1991610D01*
X3486007Y1985062D01*
X3489396Y1979190D01*
X3494190Y1974397D01*
X3500062Y1971007D01*
X3506610Y1969252D01*
X3513390D01*
X3519938Y1971007D01*
X3525810Y1974397D01*
X3530604Y1979190D01*
X3533993Y1985062D01*
X3535748Y1991610D01*
Y1998390D01*
X3533993Y2004938D01*
X3530604Y2010810D01*
X3525810Y2015603D01*
X3519938Y2018993D01*
X3513390Y2020748D01*
X3506610D01*
X3506035Y2020594D01*
X3485814Y2040814D01*
X3480853Y2044130D01*
X3475000Y2045294D01*
X2107201D01*
X1681460Y2471035D01*
X1681614Y2471610D01*
Y2478390D01*
X1679859Y2484938D01*
X1676470Y2490810D01*
X1671676Y2495604D01*
X1665804Y2498993D01*
X1659256Y2500748D01*
X1652476D01*
X1645928Y2498993D01*
X1640056Y2495604D01*
X1635263Y2490810D01*
X1631873Y2484938D01*
X1630118Y2478390D01*
Y2471610D01*
X1631873Y2465062D01*
X1635263Y2459190D01*
X1640056Y2454396D01*
X1645928Y2451007D01*
X1652476Y2449252D01*
X1659256D01*
X1659831Y2449406D01*
X2090052Y2019186D01*
X2095013Y2015870D01*
X2100866Y2014706D01*
X2830569D01*
X2831062Y2009706D01*
X2826780Y2008854D01*
X2821819Y2005539D01*
X2657407Y1841127D01*
X2496735D01*
X2496437Y1841643D01*
X2491643Y1846437D01*
X2485772Y1849827D01*
X2479223Y1851581D01*
X2472443D01*
X2465895Y1849827D01*
X2460024Y1846437D01*
X2455230Y1841643D01*
X2451840Y1835772D01*
X2450085Y1829223D01*
Y1822444D01*
X2451840Y1815895D01*
X2455230Y1810024D01*
X2460024Y1805230D01*
X2465895Y1801840D01*
X2472443Y1800085D01*
X2479223D01*
X2485772Y1801840D01*
X2491643Y1805230D01*
X2496437Y1810024D01*
X2496735Y1810539D01*
X2663742D01*
X2669595Y1811704D01*
X2674556Y1815019D01*
X2717691Y1858154D01*
X2720629Y1857185D01*
X2722448Y1855839D01*
Y1849806D01*
X2724202Y1843257D01*
X2727592Y1837386D01*
X2732386Y1832592D01*
X2738257Y1829202D01*
X2744806Y1827447D01*
X2751585D01*
X2758134Y1829202D01*
X2764005Y1832592D01*
X2768799Y1837386D01*
X2772189Y1843257D01*
X2773943Y1849806D01*
Y1856585D01*
X2773789Y1857161D01*
X2831335Y1914706D01*
X3557064D01*
X3557722Y1909706D01*
X3555062Y1908993D01*
X3549190Y1905603D01*
X3544396Y1900810D01*
X3541007Y1894938D01*
X3539252Y1888390D01*
Y1881610D01*
X3541007Y1875062D01*
X3544396Y1869190D01*
X3549190Y1864397D01*
X3549706Y1864099D01*
Y1826335D01*
X3437532Y1714161D01*
X3434217Y1709199D01*
X3433052Y1703346D01*
Y1590969D01*
X3434217Y1585117D01*
X3434706Y1584384D01*
Y1485294D01*
X3302936D01*
X3302278Y1490294D01*
X3304938Y1491007D01*
X3310810Y1494397D01*
X3315604Y1499190D01*
X3318993Y1505062D01*
X3320748Y1511610D01*
Y1518390D01*
X3318993Y1524938D01*
X3315604Y1530810D01*
X3310810Y1535603D01*
X3304938Y1538993D01*
X3298390Y1540748D01*
X3291610D01*
X3285062Y1538993D01*
X3279190Y1535603D01*
X3274396Y1530810D01*
X3274099Y1530294D01*
X3145901D01*
X3145604Y1530810D01*
X3140810Y1535603D01*
X3134938Y1538993D01*
X3128390Y1540748D01*
X3121610D01*
X3115062Y1538993D01*
X3109190Y1535603D01*
X3104396Y1530810D01*
X3101007Y1524938D01*
X3099252Y1518390D01*
Y1511610D01*
X3101007Y1505062D01*
X3104396Y1499190D01*
X3104947Y1498640D01*
X3102875Y1493640D01*
X2262093D01*
X2261165Y1495248D01*
X2256371Y1500042D01*
X2250500Y1503432D01*
X2243951Y1505187D01*
X2237171D01*
X2230623Y1503432D01*
X2224752Y1500042D01*
X2219958Y1495248D01*
X2216568Y1489377D01*
X2214813Y1482829D01*
Y1476049D01*
X2216568Y1469500D01*
X2219958Y1463629D01*
X2224752Y1458835D01*
X2230623Y1455445D01*
X2237171Y1453691D01*
X2243951D01*
X2250500Y1455445D01*
X2256371Y1458835D01*
X2260588Y1463053D01*
X3150205D01*
X3151007Y1460062D01*
X3154396Y1454190D01*
X3159190Y1449397D01*
X3165062Y1446007D01*
X3171610Y1444252D01*
X3178390D01*
X3184938Y1446007D01*
X3190810Y1449397D01*
X3195604Y1454190D01*
X3195901Y1454706D01*
X3443061D01*
X3448914Y1455870D01*
X3453876Y1459186D01*
X3456335Y1461645D01*
X4092979D01*
X4094396Y1459190D01*
X4099190Y1454397D01*
X4105062Y1451007D01*
X4111610Y1449252D01*
X4118390D01*
X4124938Y1451007D01*
X4130810Y1454397D01*
X4133619Y1457206D01*
X4987655D01*
X4989396Y1454190D01*
X4994190Y1449397D01*
X5000062Y1446007D01*
X5006610Y1444252D01*
X5013390D01*
X5019938Y1446007D01*
X5025810Y1449397D01*
X5030604Y1454190D01*
X5033993Y1460062D01*
X5035748Y1466610D01*
Y1473390D01*
X5033993Y1479938D01*
X5030604Y1485810D01*
X5025810Y1490603D01*
X5019938Y1493993D01*
X5013390Y1495748D01*
X5006610D01*
X5000062Y1493993D01*
X4994190Y1490603D01*
X4991381Y1487794D01*
X4137345D01*
X4135604Y1490810D01*
X4130810Y1495603D01*
X4124938Y1498993D01*
X4118390Y1500748D01*
X4111610D01*
X4105062Y1498993D01*
X4099190Y1495603D01*
X4095819Y1492233D01*
X3465294D01*
Y1589316D01*
X3464130Y1595168D01*
X3463640Y1595901D01*
Y1697012D01*
X3575814Y1809186D01*
X3579130Y1814147D01*
X3580294Y1820000D01*
Y1862171D01*
X3583701Y1864321D01*
X3587108Y1862171D01*
Y1566606D01*
X3588272Y1560753D01*
X3588650Y1560187D01*
X3588507Y1559938D01*
X3586752Y1553390D01*
Y1546610D01*
X3588507Y1540062D01*
X3591896Y1534190D01*
X3596690Y1529397D01*
X3602561Y1526007D01*
X3609110Y1524252D01*
X3615890D01*
X3622438Y1526007D01*
X3628310Y1529397D01*
X3633103Y1534190D01*
X3636493Y1540062D01*
X3638248Y1546610D01*
Y1553390D01*
X3636493Y1559938D01*
X3633103Y1565810D01*
X3628310Y1570604D01*
X3622438Y1573993D01*
X3617695Y1575264D01*
Y1819486D01*
X3622695Y1822373D01*
X3625062Y1821007D01*
X3631610Y1819252D01*
X3638390D01*
X3638965Y1819406D01*
X3684186Y1774186D01*
X3689147Y1770870D01*
X3695000Y1769706D01*
X4484099D01*
X4484396Y1769190D01*
X4489190Y1764397D01*
X4495062Y1761007D01*
X4501610Y1759252D01*
X4508390D01*
X4514938Y1761007D01*
X4520810Y1764397D01*
X4525604Y1769190D01*
X4528993Y1775062D01*
X4530748Y1781610D01*
Y1788390D01*
X4528993Y1794938D01*
X4525604Y1800810D01*
X4520810Y1805603D01*
X4514938Y1808993D01*
X4508390Y1810748D01*
X4501610D01*
X4495062Y1808993D01*
X4489190Y1805603D01*
X4484396Y1800810D01*
X4484099Y1800294D01*
X3701335D01*
X3660594Y1841035D01*
X3660748Y1841610D01*
Y1848390D01*
X3658993Y1854938D01*
X3655604Y1860810D01*
X3650810Y1865603D01*
X3644938Y1868993D01*
X3638390Y1870748D01*
X3631610D01*
X3629324Y1870136D01*
X3626030Y1874429D01*
X3626395Y1875062D01*
X3628150Y1881610D01*
Y1888390D01*
X3626395Y1894938D01*
X3623005Y1900810D01*
X3618211Y1905603D01*
X3612340Y1908993D01*
X3609680Y1909706D01*
X3610338Y1914706D01*
X3644099D01*
X3644396Y1914190D01*
X3649190Y1909397D01*
X3655062Y1906007D01*
X3661610Y1904252D01*
X3668390D01*
X3674938Y1906007D01*
X3680810Y1909397D01*
X3685604Y1914190D01*
X3688034Y1918400D01*
X3693628Y1919878D01*
X3705974Y1907532D01*
X3710936Y1904217D01*
X3716788Y1903053D01*
X4229216D01*
X4278855Y1853414D01*
X4278701Y1852839D01*
Y1846059D01*
X4280456Y1839510D01*
X4283845Y1833639D01*
X4288639Y1828845D01*
X4294510Y1825456D01*
X4301059Y1823701D01*
X4307839D01*
X4314387Y1825456D01*
X4320258Y1828845D01*
X4325052Y1833639D01*
X4328442Y1839510D01*
X4330197Y1846059D01*
Y1852839D01*
X4328442Y1859387D01*
X4325052Y1865258D01*
X4320258Y1870052D01*
X4314387Y1873442D01*
X4307839Y1875197D01*
X4301059D01*
X4300484Y1875043D01*
X4250820Y1924706D01*
X4252891Y1929706D01*
X5549099D01*
X5549396Y1929190D01*
X5554190Y1924397D01*
X5560062Y1921007D01*
X5566610Y1919252D01*
X5573390D01*
X5579938Y1921007D01*
X5585810Y1924397D01*
X5590604Y1929190D01*
X5593993Y1935062D01*
X5595748Y1941610D01*
Y1948390D01*
X5593993Y1954938D01*
X5590604Y1960810D01*
X5585810Y1965603D01*
X5579938Y1968993D01*
X5573390Y1970748D01*
X5566610D01*
X5560062Y1968993D01*
X5554190Y1965603D01*
X5549396Y1960810D01*
X5549099Y1960294D01*
X4055901D01*
X4055604Y1960810D01*
X4050810Y1965603D01*
X4044938Y1968993D01*
X4038390Y1970748D01*
X4031610D01*
X4025062Y1968993D01*
X4019190Y1965603D01*
X4014396Y1960810D01*
X4014099Y1960294D01*
X3768641D01*
X3662279Y2066656D01*
X3663147Y2072859D01*
X3665810Y2074396D01*
X3670604Y2079190D01*
X3672141Y2081853D01*
X3678344Y2082721D01*
X3693139Y2067926D01*
X3698101Y2064610D01*
X3703954Y2063446D01*
X3737839D01*
X3738137Y2062930D01*
X3742930Y2058137D01*
X3748802Y2054747D01*
X3755350Y2052992D01*
X3762130D01*
X3768678Y2054747D01*
X3774550Y2058137D01*
X3779344Y2062930D01*
X3782733Y2068802D01*
X3784488Y2075350D01*
Y2082130D01*
X3782733Y2088678D01*
X3779344Y2094550D01*
X3774550Y2099344D01*
X3768678Y2102733D01*
X3762130Y2104488D01*
X3755350D01*
X3748802Y2102733D01*
X3742930Y2099344D01*
X3738137Y2094550D01*
X3737839Y2094034D01*
X3710289D01*
X3679855Y2124468D01*
X3681349Y2130045D01*
X3684938Y2131007D01*
X3690810Y2134396D01*
X3695604Y2139190D01*
X3698993Y2145062D01*
X3700748Y2151610D01*
Y2158390D01*
X3698993Y2164938D01*
X3695604Y2170810D01*
X3690810Y2175604D01*
X3690294Y2175901D01*
Y2614099D01*
X3690810Y2614396D01*
X3695604Y2619190D01*
X3698993Y2625062D01*
X3700748Y2631610D01*
Y2638390D01*
X3698993Y2644938D01*
X3695604Y2650810D01*
X3690810Y2655604D01*
X3684938Y2658993D01*
X3678390Y2660748D01*
D02*
G37*
G36*
X615463Y2516496D02*
X604537D01*
X593983Y2513668D01*
X584521Y2508205D01*
X576795Y2500479D01*
X571332Y2491017D01*
X568504Y2480463D01*
Y2469537D01*
X571332Y2458983D01*
X576795Y2449521D01*
X584521Y2441795D01*
X593983Y2436332D01*
X604537Y2433504D01*
X615463D01*
X626017Y2436332D01*
X635479Y2441795D01*
X643205Y2449521D01*
X648668Y2458983D01*
X651496Y2469537D01*
Y2480463D01*
X648668Y2491017D01*
X643205Y2500479D01*
X635479Y2508205D01*
X626017Y2513668D01*
X615463Y2516496D01*
D02*
G37*
G36*
X515463D02*
X504537D01*
X493983Y2513668D01*
X484521Y2508205D01*
X476795Y2500479D01*
X471332Y2491017D01*
X468504Y2480463D01*
Y2469537D01*
X471332Y2458983D01*
X476795Y2449521D01*
X484521Y2441795D01*
X493983Y2436332D01*
X504537Y2433504D01*
X515463D01*
X526017Y2436332D01*
X535479Y2441795D01*
X543205Y2449521D01*
X548668Y2458983D01*
X551496Y2469537D01*
Y2480463D01*
X548668Y2491017D01*
X543205Y2500479D01*
X535479Y2508205D01*
X526017Y2513668D01*
X515463Y2516496D01*
D02*
G37*
G36*
X3383390Y2585748D02*
X3376610D01*
X3370062Y2583993D01*
X3364190Y2580604D01*
X3359396Y2575810D01*
X3356007Y2569938D01*
X3354252Y2563390D01*
Y2556610D01*
X3356007Y2550062D01*
X3359396Y2544190D01*
X3364190Y2539396D01*
X3370062Y2536007D01*
X3376610Y2534252D01*
X3383390D01*
X3389938Y2536007D01*
X3395810Y2539396D01*
X3400604Y2544190D01*
X3400901Y2544706D01*
X3453665D01*
X3574406Y2423965D01*
X3574252Y2423390D01*
Y2416610D01*
X3576007Y2410062D01*
X3579396Y2404190D01*
X3584190Y2399396D01*
X3590062Y2396007D01*
X3596610Y2394252D01*
X3603390D01*
X3609938Y2396007D01*
X3615810Y2399396D01*
X3620604Y2404190D01*
X3623993Y2410062D01*
X3625748Y2416610D01*
Y2423390D01*
X3623993Y2429938D01*
X3620604Y2435810D01*
X3615810Y2440604D01*
X3609938Y2443993D01*
X3603390Y2445748D01*
X3596610D01*
X3596035Y2445594D01*
X3470814Y2570814D01*
X3465853Y2574130D01*
X3460000Y2575294D01*
X3400901D01*
X3400604Y2575810D01*
X3395810Y2580604D01*
X3389938Y2583993D01*
X3383390Y2585748D01*
D02*
G37*
G36*
X615463Y2416496D02*
X604537D01*
X593983Y2413668D01*
X584521Y2408205D01*
X576795Y2400479D01*
X571332Y2391017D01*
X568504Y2380463D01*
Y2369537D01*
X571332Y2358983D01*
X576795Y2349521D01*
X584521Y2341795D01*
X593983Y2336332D01*
X604537Y2333504D01*
X615463D01*
X626017Y2336332D01*
X635479Y2341795D01*
X643205Y2349521D01*
X648668Y2358983D01*
X651496Y2369537D01*
Y2380463D01*
X648668Y2391017D01*
X643205Y2400479D01*
X635479Y2408205D01*
X626017Y2413668D01*
X615463Y2416496D01*
D02*
G37*
G36*
X525748Y2416718D02*
X494252D01*
X487530Y2415833D01*
X481267Y2413239D01*
X475888Y2409112D01*
X471761Y2403733D01*
X469167Y2397470D01*
X468282Y2390748D01*
Y2359252D01*
X469167Y2352530D01*
X471761Y2346267D01*
X475888Y2340888D01*
X481267Y2336761D01*
X487530Y2334167D01*
X494252Y2333282D01*
X525748D01*
X532470Y2334167D01*
X538733Y2336761D01*
X544112Y2340888D01*
X548239Y2346267D01*
X550833Y2352530D01*
X551718Y2359252D01*
Y2390748D01*
X550833Y2397470D01*
X548239Y2403733D01*
X544112Y2409112D01*
X538733Y2413239D01*
X532470Y2415833D01*
X525748Y2416718D01*
D02*
G37*
G36*
X820256Y2169921D02*
X809744D01*
X799591Y2167201D01*
X790488Y2161945D01*
X783055Y2154512D01*
X777799Y2145409D01*
X775079Y2135256D01*
Y2124744D01*
X777799Y2114591D01*
X783055Y2105488D01*
X790488Y2098055D01*
X799591Y2092799D01*
X809744Y2090079D01*
X820256D01*
X830409Y2092799D01*
X839512Y2098055D01*
X846945Y2105488D01*
X852201Y2114591D01*
X854921Y2124744D01*
Y2135256D01*
X852201Y2145409D01*
X846945Y2154512D01*
X839512Y2161945D01*
X830409Y2167201D01*
X820256Y2169921D01*
D02*
G37*
G36*
X720256D02*
X709744D01*
X699591Y2167201D01*
X690488Y2161945D01*
X683055Y2154512D01*
X677799Y2145409D01*
X675079Y2135256D01*
Y2124744D01*
X677799Y2114591D01*
X683055Y2105488D01*
X690488Y2098055D01*
X699591Y2092799D01*
X709744Y2090079D01*
X720256D01*
X730409Y2092799D01*
X739512Y2098055D01*
X746945Y2105488D01*
X752201Y2114591D01*
X754921Y2124744D01*
Y2135256D01*
X752201Y2145409D01*
X746945Y2154512D01*
X739512Y2161945D01*
X730409Y2167201D01*
X720256Y2169921D01*
D02*
G37*
G36*
X620256D02*
X609744D01*
X599591Y2167201D01*
X590488Y2161945D01*
X583055Y2154512D01*
X577799Y2145409D01*
X575079Y2135256D01*
Y2124744D01*
X577799Y2114591D01*
X583055Y2105488D01*
X590488Y2098055D01*
X599591Y2092799D01*
X609744Y2090079D01*
X620256D01*
X630409Y2092799D01*
X639512Y2098055D01*
X646945Y2105488D01*
X652201Y2114591D01*
X654921Y2124744D01*
Y2135256D01*
X652201Y2145409D01*
X646945Y2154512D01*
X639512Y2161945D01*
X630409Y2167201D01*
X620256Y2169921D01*
D02*
G37*
G36*
X520256D02*
X509744D01*
X499591Y2167201D01*
X490488Y2161945D01*
X483055Y2154512D01*
X477799Y2145409D01*
X475079Y2135256D01*
Y2124744D01*
X477799Y2114591D01*
X483055Y2105488D01*
X490488Y2098055D01*
X499591Y2092799D01*
X509744Y2090079D01*
X520256D01*
X530409Y2092799D01*
X539512Y2098055D01*
X546945Y2105488D01*
X552201Y2114591D01*
X554921Y2124744D01*
Y2135256D01*
X552201Y2145409D01*
X546945Y2154512D01*
X539512Y2161945D01*
X530409Y2167201D01*
X520256Y2169921D01*
D02*
G37*
G36*
X320256D02*
X309744D01*
X299591Y2167201D01*
X290488Y2161945D01*
X283055Y2154512D01*
X277799Y2145409D01*
X275079Y2135256D01*
Y2124744D01*
X277799Y2114591D01*
X283055Y2105488D01*
X290488Y2098055D01*
X299591Y2092799D01*
X309744Y2090079D01*
X320256D01*
X330409Y2092799D01*
X339512Y2098055D01*
X346945Y2105488D01*
X352201Y2114591D01*
X354921Y2124744D01*
Y2135256D01*
X352201Y2145409D01*
X346945Y2154512D01*
X339512Y2161945D01*
X330409Y2167201D01*
X320256Y2169921D01*
D02*
G37*
G36*
X920256Y2169921D02*
X909744D01*
X899591Y2167201D01*
X890488Y2161945D01*
X883055Y2154512D01*
X877799Y2145409D01*
X875079Y2135256D01*
Y2124744D01*
X877799Y2114591D01*
X883055Y2105488D01*
X890488Y2098055D01*
X899591Y2092799D01*
X909744Y2090079D01*
X920256D01*
X930409Y2092799D01*
X939512Y2098055D01*
X946945Y2105488D01*
X952201Y2114591D01*
X954921Y2124744D01*
Y2135256D01*
X952201Y2145409D01*
X946945Y2154512D01*
X939512Y2161945D01*
X930409Y2167201D01*
X920256Y2169921D01*
D02*
G37*
G36*
X2148390Y2499331D02*
X2141610D01*
X2135062Y2497576D01*
X2129190Y2494186D01*
X2124396Y2489392D01*
X2121007Y2483521D01*
X2119252Y2476972D01*
Y2470193D01*
X2121007Y2463644D01*
X2124396Y2457773D01*
X2129190Y2452979D01*
X2135062Y2449589D01*
X2141610Y2447835D01*
X2148390D01*
X2148965Y2447989D01*
X2527768Y2069186D01*
X2532730Y2065870D01*
X2538583Y2064706D01*
X3399099D01*
X3399396Y2064190D01*
X3404190Y2059396D01*
X3410062Y2056007D01*
X3416610Y2054252D01*
X3423390D01*
X3429938Y2056007D01*
X3435810Y2059396D01*
X3440604Y2064190D01*
X3443993Y2070062D01*
X3445748Y2076610D01*
Y2083390D01*
X3443993Y2089938D01*
X3440604Y2095810D01*
X3435810Y2100604D01*
X3429938Y2103993D01*
X3423390Y2105748D01*
X3416610D01*
X3410062Y2103993D01*
X3404190Y2100604D01*
X3399396Y2095810D01*
X3399099Y2095294D01*
X2544918D01*
X2170594Y2469618D01*
X2170748Y2470193D01*
Y2476972D01*
X2168993Y2483521D01*
X2165604Y2489392D01*
X2160810Y2494186D01*
X2154938Y2497576D01*
X2148390Y2499331D01*
D02*
G37*
G36*
X3098390Y1875748D02*
X3091610D01*
X3085062Y1873993D01*
X3079190Y1870603D01*
X3074396Y1865810D01*
X3074099Y1865294D01*
X2835901D01*
X2835604Y1865810D01*
X2830810Y1870603D01*
X2824938Y1873993D01*
X2818390Y1875748D01*
X2811610D01*
X2805062Y1873993D01*
X2799190Y1870603D01*
X2794396Y1865810D01*
X2791007Y1859938D01*
X2789252Y1853390D01*
Y1846610D01*
X2791007Y1840062D01*
X2794396Y1834190D01*
X2799190Y1829397D01*
X2805062Y1826007D01*
X2811610Y1824252D01*
X2818390D01*
X2824938Y1826007D01*
X2830810Y1829397D01*
X2835604Y1834190D01*
X2835901Y1834706D01*
X3074099D01*
X3074396Y1834190D01*
X3079190Y1829397D01*
X3085062Y1826007D01*
X3091610Y1824252D01*
X3098390D01*
X3104938Y1826007D01*
X3110810Y1829397D01*
X3115604Y1834190D01*
X3118993Y1840062D01*
X3120748Y1846610D01*
Y1853390D01*
X3118993Y1859938D01*
X3115604Y1865810D01*
X3110810Y1870603D01*
X3104938Y1873993D01*
X3098390Y1875748D01*
D02*
G37*
G36*
X4918390Y1670748D02*
X4911610D01*
X4905062Y1668993D01*
X4899190Y1665603D01*
X4894396Y1660810D01*
X4893228Y1658785D01*
X4117628D01*
X4113827Y1662586D01*
X4107956Y1665976D01*
X4101407Y1667731D01*
X4094628D01*
X4088079Y1665976D01*
X4082208Y1662586D01*
X4077414Y1657792D01*
X4074024Y1651921D01*
X4072269Y1645372D01*
Y1638593D01*
X4074024Y1632044D01*
X4077414Y1626173D01*
X4082208Y1621379D01*
X4088079Y1617989D01*
X4094628Y1616235D01*
X4101407D01*
X4107956Y1617989D01*
X4113827Y1621379D01*
X4118621Y1626173D01*
X4119790Y1628197D01*
X4895389D01*
X4899190Y1624397D01*
X4905062Y1621007D01*
X4911610Y1619252D01*
X4918390D01*
X4924938Y1621007D01*
X4930810Y1624397D01*
X4935604Y1629190D01*
X4938993Y1635062D01*
X4940748Y1641610D01*
Y1648390D01*
X4938993Y1654938D01*
X4935604Y1660810D01*
X4930810Y1665603D01*
X4924938Y1668993D01*
X4918390Y1670748D01*
D02*
G37*
G36*
X2273390Y1655748D02*
X2266610D01*
X2260062Y1653993D01*
X2254190Y1650603D01*
X2249396Y1645810D01*
X2246007Y1639938D01*
X2244252Y1633390D01*
Y1626610D01*
X2246007Y1620062D01*
X2249396Y1614190D01*
X2254190Y1609397D01*
X2260062Y1606007D01*
X2266610Y1604252D01*
X2273390D01*
X2279938Y1606007D01*
X2285810Y1609397D01*
X2290604Y1614190D01*
X2290618Y1614216D01*
X3062835D01*
X3063416Y1613210D01*
X3068210Y1608416D01*
X3074081Y1605026D01*
X3080630Y1603271D01*
X3087409D01*
X3093958Y1605026D01*
X3099829Y1608416D01*
X3104623Y1613210D01*
X3108013Y1619081D01*
X3109767Y1625630D01*
Y1632409D01*
X3108013Y1638958D01*
X3104623Y1644829D01*
X3099829Y1649623D01*
X3093958Y1653013D01*
X3087409Y1654767D01*
X3080630D01*
X3074081Y1653013D01*
X3068210Y1649623D01*
X3063416Y1644829D01*
X3063401Y1644804D01*
X2291184D01*
X2290604Y1645810D01*
X2285810Y1650603D01*
X2279938Y1653993D01*
X2273390Y1655748D01*
D02*
G37*
G36*
X5248390Y1545748D02*
X5241610D01*
X5235062Y1543993D01*
X5229190Y1540603D01*
X5224396Y1535810D01*
X5224099Y1535294D01*
X4985901D01*
X4985604Y1535810D01*
X4980810Y1540603D01*
X4974938Y1543993D01*
X4968390Y1545748D01*
X4961610D01*
X4955062Y1543993D01*
X4949190Y1540603D01*
X4944396Y1535810D01*
X4941007Y1529938D01*
X4939252Y1523390D01*
Y1516610D01*
X4941007Y1510062D01*
X4944396Y1504190D01*
X4949190Y1499397D01*
X4955062Y1496007D01*
X4961610Y1494252D01*
X4968390D01*
X4974938Y1496007D01*
X4980810Y1499397D01*
X4985604Y1504190D01*
X4985901Y1504706D01*
X5224099D01*
X5224396Y1504190D01*
X5229190Y1499397D01*
X5235062Y1496007D01*
X5241610Y1494252D01*
X5248390D01*
X5254938Y1496007D01*
X5260810Y1499397D01*
X5265604Y1504190D01*
X5268993Y1510062D01*
X5270748Y1516610D01*
Y1523390D01*
X5268993Y1529938D01*
X5265604Y1535810D01*
X5260810Y1540603D01*
X5254938Y1543993D01*
X5248390Y1545748D01*
D02*
G37*
G36*
X568390Y1420748D02*
X561610D01*
X555062Y1418993D01*
X549190Y1415603D01*
X544396Y1410810D01*
X541007Y1404938D01*
X539252Y1398390D01*
Y1395881D01*
X535748Y1392377D01*
X530748Y1394448D01*
Y1398390D01*
X528993Y1404938D01*
X525604Y1410810D01*
X520810Y1415603D01*
X514938Y1418993D01*
X508390Y1420748D01*
X501610D01*
X495062Y1418993D01*
X489190Y1415603D01*
X484397Y1410810D01*
X484099Y1410294D01*
X458608D01*
X452755Y1409130D01*
X447793Y1405814D01*
X269186Y1227207D01*
X265870Y1222245D01*
X264706Y1216392D01*
Y940901D01*
X264190Y940604D01*
X259397Y935810D01*
X256007Y929938D01*
X254252Y923390D01*
Y916610D01*
X256007Y910062D01*
X259397Y904190D01*
X264190Y899396D01*
X270062Y896007D01*
X276610Y894252D01*
X283390D01*
X289938Y896007D01*
X295810Y899396D01*
X300603Y904190D01*
X303993Y910062D01*
X305748Y916610D01*
Y923390D01*
X303993Y929938D01*
X300603Y935810D01*
X295810Y940604D01*
X295294Y940901D01*
Y1210057D01*
X464943Y1379706D01*
X484099D01*
X484397Y1379190D01*
X489190Y1374397D01*
X495062Y1371007D01*
X501610Y1369252D01*
X507128D01*
X508725Y1367801D01*
X509732Y1366519D01*
X510637Y1364678D01*
X509706Y1360000D01*
Y1080901D01*
X509190Y1080603D01*
X504397Y1075810D01*
X501007Y1069938D01*
X499252Y1063390D01*
Y1056610D01*
X501007Y1050062D01*
X504397Y1044190D01*
X509190Y1039397D01*
X515062Y1036007D01*
X521610Y1034252D01*
X528390D01*
X534938Y1036007D01*
X540810Y1039397D01*
X545604Y1044190D01*
X548993Y1050062D01*
X550748Y1056610D01*
Y1063390D01*
X548993Y1069938D01*
X545604Y1075810D01*
X540810Y1080603D01*
X540294Y1080901D01*
Y1353665D01*
X557092Y1370463D01*
X561610Y1369252D01*
X568390D01*
X574938Y1371007D01*
X580810Y1374397D01*
X585604Y1379190D01*
X588993Y1385062D01*
X590748Y1391610D01*
Y1398390D01*
X588993Y1404938D01*
X585604Y1410810D01*
X580810Y1415603D01*
X574938Y1418993D01*
X568390Y1420748D01*
D02*
G37*
G36*
X5315824Y1418012D02*
X1840000D01*
X1836928Y1417401D01*
X1834323Y1415660D01*
X1832583Y1413056D01*
X1831972Y1409983D01*
Y1285000D01*
X1832583Y1281928D01*
X1834323Y1279323D01*
X1836928Y1277583D01*
X1840000Y1276972D01*
X4133819D01*
X4134848Y1277177D01*
X4135896Y1277245D01*
X4137667Y1277720D01*
X4142333D01*
X4144104Y1277245D01*
X4145151Y1277177D01*
X4146181Y1276972D01*
X5016827D01*
X5017857Y1277177D01*
X5018905Y1277245D01*
X5019380Y1277479D01*
X5019899Y1277583D01*
X5020773Y1278166D01*
X5021714Y1278631D01*
X5022063Y1279029D01*
X5022504Y1279323D01*
X5023087Y1280196D01*
X5023780Y1280986D01*
X5024488Y1282213D01*
X5027787Y1285512D01*
X5031828Y1287845D01*
X5036334Y1289052D01*
X5041000D01*
X5045507Y1287845D01*
X5049548Y1285512D01*
X5052847Y1282213D01*
X5053555Y1280986D01*
X5054248Y1280196D01*
X5054831Y1279323D01*
X5055271Y1279029D01*
X5055621Y1278631D01*
X5056562Y1278166D01*
X5057435Y1277583D01*
X5057955Y1277479D01*
X5058430Y1277245D01*
X5059478Y1277177D01*
X5060508Y1276972D01*
X5315000D01*
X5318072Y1277583D01*
X5320677Y1279323D01*
X5320677Y1279323D01*
X5321501Y1280147D01*
X5323241Y1282751D01*
X5323852Y1285824D01*
Y1409983D01*
X5323241Y1413056D01*
X5321501Y1415660D01*
X5318896Y1417401D01*
X5315824Y1418012D01*
D02*
G37*
G36*
X5083390Y1185748D02*
X5076610D01*
X5070062Y1183993D01*
X5064190Y1180603D01*
X5059396Y1175810D01*
X5056007Y1169938D01*
X5054252Y1163390D01*
Y1156610D01*
X5056007Y1150062D01*
X5057583Y1147331D01*
X5054102Y1143361D01*
X5052749Y1143921D01*
X5045000Y1144941D01*
X5037251Y1143921D01*
X5030029Y1140930D01*
X5023828Y1136172D01*
X5019070Y1129971D01*
X5016079Y1122749D01*
X5015059Y1115000D01*
Y472402D01*
X4907598Y364941D01*
X4088817D01*
X4086904Y369561D01*
X4166172Y448828D01*
X4170930Y455029D01*
X4172169Y458021D01*
X4173921Y462251D01*
X4174941Y470000D01*
Y861926D01*
X4179941Y863997D01*
X4181264Y862675D01*
X4187135Y859285D01*
X4193684Y857530D01*
X4200463D01*
X4207012Y859285D01*
X4212883Y862675D01*
X4217677Y867468D01*
X4221067Y873340D01*
X4222822Y879888D01*
Y886668D01*
X4221067Y893217D01*
X4217677Y899088D01*
X4212883Y903882D01*
X4212368Y904179D01*
Y1112926D01*
X4211203Y1118779D01*
X4207888Y1123741D01*
X4185594Y1146035D01*
X4185748Y1146610D01*
Y1153390D01*
X4183993Y1159938D01*
X4180604Y1165810D01*
X4175810Y1170603D01*
X4169938Y1173993D01*
X4163390Y1175748D01*
X4156610D01*
X4150062Y1173993D01*
X4144190Y1170603D01*
X4139396Y1165810D01*
X4136007Y1159938D01*
X4134252Y1153390D01*
Y1146610D01*
X4136007Y1140062D01*
X4136885Y1138540D01*
X4134449Y1132760D01*
X4130029Y1130930D01*
X4123828Y1126172D01*
X4119070Y1119971D01*
X4116079Y1112749D01*
X4115059Y1105000D01*
Y482402D01*
X3997598Y364941D01*
X3153817D01*
X3151904Y369561D01*
X3231172Y448828D01*
X3235930Y455029D01*
X3237169Y458021D01*
X3238921Y462251D01*
X3239941Y470000D01*
Y852993D01*
X3244941Y855880D01*
X3248243Y853974D01*
X3254791Y852219D01*
X3261571D01*
X3268120Y853974D01*
X3273991Y857364D01*
X3278785Y862158D01*
X3282175Y868029D01*
X3283929Y874577D01*
Y881357D01*
X3282175Y887906D01*
X3278785Y893777D01*
X3273991Y898571D01*
X3273475Y898869D01*
Y1116819D01*
X3272311Y1122671D01*
X3268996Y1127633D01*
X3250594Y1146035D01*
X3250748Y1146610D01*
Y1153390D01*
X3248993Y1159938D01*
X3245604Y1165810D01*
X3240810Y1170603D01*
X3234938Y1173993D01*
X3228390Y1175748D01*
X3221610D01*
X3215062Y1173993D01*
X3209190Y1170603D01*
X3204396Y1165810D01*
X3201007Y1159938D01*
X3199252Y1153390D01*
Y1146610D01*
X3201007Y1140062D01*
X3204396Y1134190D01*
X3204806Y1133781D01*
X3203199Y1129046D01*
X3202251Y1128921D01*
X3195029Y1125930D01*
X3188828Y1121172D01*
X3184070Y1114971D01*
X3181079Y1107749D01*
X3180059Y1100000D01*
Y482402D01*
X3062598Y364941D01*
X2228817D01*
X2226904Y369561D01*
X2286172Y428828D01*
X2290930Y435029D01*
X2293921Y442251D01*
X2294941Y450000D01*
Y843901D01*
X2299271Y846401D01*
X2300022Y845967D01*
X2306571Y844213D01*
X2313350D01*
X2319899Y845967D01*
X2325770Y849357D01*
X2330564Y854151D01*
X2333954Y860022D01*
X2335709Y866571D01*
Y873350D01*
X2333954Y879899D01*
X2330564Y885770D01*
X2325770Y890564D01*
X2325255Y890862D01*
Y1105039D01*
X2324090Y1110892D01*
X2320775Y1115854D01*
X2295594Y1141035D01*
X2295748Y1141610D01*
Y1148390D01*
X2293993Y1154938D01*
X2290604Y1160810D01*
X2285810Y1165603D01*
X2279938Y1168993D01*
X2273390Y1170748D01*
X2266610D01*
X2260062Y1168993D01*
X2254190Y1165603D01*
X2249396Y1160810D01*
X2246007Y1154938D01*
X2244252Y1148390D01*
Y1141610D01*
X2246007Y1135062D01*
X2249396Y1129190D01*
X2251596Y1126991D01*
X2250423Y1121093D01*
X2250029Y1120930D01*
X2243828Y1116172D01*
X2239070Y1109971D01*
X2236079Y1102749D01*
X2235059Y1095000D01*
Y462402D01*
X2137598Y364941D01*
X942402D01*
X729941Y577402D01*
Y918750D01*
X728921Y926499D01*
X725930Y933721D01*
X721172Y939922D01*
X714971Y944680D01*
X707749Y947671D01*
X700000Y948691D01*
X692251Y947671D01*
X685029Y944680D01*
X678828Y939922D01*
X674070Y933721D01*
X671079Y926499D01*
X670059Y918750D01*
Y565000D01*
X671079Y557251D01*
X674070Y550029D01*
X678828Y543828D01*
X908828Y313828D01*
X915029Y309070D01*
X918020Y307831D01*
X922251Y306079D01*
X930000Y305059D01*
X4920000D01*
X4927749Y306079D01*
X4934971Y309070D01*
X4941172Y313828D01*
X5066172Y438828D01*
X5070930Y445029D01*
X5073921Y452251D01*
X5074941Y460000D01*
Y862346D01*
X5079941Y863963D01*
X5085062Y861007D01*
X5091610Y859252D01*
X5098390D01*
X5104938Y861007D01*
X5110810Y864396D01*
X5115604Y869190D01*
X5118993Y875062D01*
X5120748Y881610D01*
Y888390D01*
X5118993Y894938D01*
X5115604Y900810D01*
X5110810Y905604D01*
X5110294Y905901D01*
Y1139183D01*
X5109130Y1145036D01*
X5105814Y1149997D01*
X5104365Y1151447D01*
X5105748Y1156610D01*
Y1163390D01*
X5103993Y1169938D01*
X5100604Y1175810D01*
X5095810Y1180603D01*
X5089938Y1183993D01*
X5083390Y1185748D01*
D02*
G37*
G36*
X5213390Y1165748D02*
X5206610D01*
X5200062Y1163993D01*
X5194190Y1160603D01*
X5189396Y1155810D01*
X5186007Y1149938D01*
X5184252Y1143390D01*
Y1136610D01*
X5186007Y1130062D01*
X5189396Y1124190D01*
X5194190Y1119397D01*
X5194706Y1119099D01*
Y896335D01*
X5153965Y855594D01*
X5153390Y855748D01*
X5146610D01*
X5140062Y853993D01*
X5134190Y850604D01*
X5129396Y845810D01*
X5126007Y839938D01*
X5124252Y833390D01*
Y826610D01*
X5126007Y820062D01*
X5129396Y814190D01*
X5134190Y809396D01*
X5140062Y806007D01*
X5146610Y804252D01*
X5153390D01*
X5159938Y806007D01*
X5165810Y809396D01*
X5170604Y814190D01*
X5173993Y820062D01*
X5175748Y826610D01*
Y833390D01*
X5175594Y833965D01*
X5220814Y879186D01*
X5224130Y884147D01*
X5225294Y890000D01*
Y1119099D01*
X5225810Y1119397D01*
X5230604Y1124190D01*
X5233993Y1130062D01*
X5235748Y1136610D01*
Y1143390D01*
X5233993Y1149938D01*
X5230604Y1155810D01*
X5225810Y1160603D01*
X5219938Y1163993D01*
X5213390Y1165748D01*
D02*
G37*
G36*
X2443390Y1150748D02*
X2436610D01*
X2430062Y1148993D01*
X2424190Y1145603D01*
X2419396Y1140810D01*
X2416007Y1134938D01*
X2414252Y1128390D01*
Y1121610D01*
X2416007Y1115062D01*
X2419396Y1109190D01*
X2424190Y1104397D01*
X2424706Y1104099D01*
Y891335D01*
X2383965Y850594D01*
X2383390Y850748D01*
X2376610D01*
X2370062Y848993D01*
X2364190Y845604D01*
X2359396Y840810D01*
X2356007Y834938D01*
X2354252Y828390D01*
Y821610D01*
X2356007Y815062D01*
X2359396Y809190D01*
X2364190Y804396D01*
X2370062Y801007D01*
X2376610Y799252D01*
X2383390D01*
X2389938Y801007D01*
X2395810Y804396D01*
X2400604Y809190D01*
X2403993Y815062D01*
X2405748Y821610D01*
Y828390D01*
X2405594Y828965D01*
X2450814Y874186D01*
X2454130Y879147D01*
X2455294Y885000D01*
Y1104099D01*
X2455810Y1104397D01*
X2460604Y1109190D01*
X2463993Y1115062D01*
X2465748Y1121610D01*
Y1128390D01*
X2463993Y1134938D01*
X2460604Y1140810D01*
X2455810Y1145603D01*
X2449938Y1148993D01*
X2443390Y1150748D01*
D02*
G37*
G36*
X3382549Y1154049D02*
X3375769D01*
X3369221Y1152294D01*
X3363349Y1148904D01*
X3358556Y1144110D01*
X3355166Y1138239D01*
X3353411Y1131690D01*
Y1124911D01*
X3355166Y1118362D01*
X3358556Y1112491D01*
X3363349Y1107697D01*
X3363865Y1107399D01*
Y885494D01*
X3323965Y845594D01*
X3323390Y845748D01*
X3316610D01*
X3310062Y843993D01*
X3304190Y840604D01*
X3299396Y835810D01*
X3296007Y829938D01*
X3294252Y823390D01*
Y816610D01*
X3296007Y810062D01*
X3299396Y804190D01*
X3304190Y799396D01*
X3310062Y796007D01*
X3316610Y794252D01*
X3323390D01*
X3329938Y796007D01*
X3335810Y799396D01*
X3340604Y804190D01*
X3343993Y810062D01*
X3345748Y816610D01*
Y823390D01*
X3345594Y823965D01*
X3389974Y868345D01*
X3393289Y873306D01*
X3394453Y879159D01*
Y1107399D01*
X3394969Y1107697D01*
X3399763Y1112491D01*
X3403153Y1118362D01*
X3404907Y1124911D01*
Y1131690D01*
X3403153Y1138239D01*
X3399763Y1144110D01*
X3394969Y1148904D01*
X3389098Y1152294D01*
X3382549Y1154049D01*
D02*
G37*
G36*
X4323390Y1155748D02*
X4316610D01*
X4310062Y1153993D01*
X4304190Y1150603D01*
X4299396Y1145810D01*
X4296007Y1139938D01*
X4294252Y1133390D01*
Y1126610D01*
X4296007Y1120062D01*
X4299396Y1114190D01*
X4304190Y1109397D01*
X4304706Y1109099D01*
Y884155D01*
X4262261Y841711D01*
X4261686Y841865D01*
X4254907D01*
X4248358Y840110D01*
X4242487Y836720D01*
X4237693Y831927D01*
X4234303Y826055D01*
X4232548Y819507D01*
Y812727D01*
X4234303Y806178D01*
X4237693Y800307D01*
X4242487Y795513D01*
X4248358Y792124D01*
X4254907Y790369D01*
X4261686D01*
X4268235Y792124D01*
X4274106Y795513D01*
X4278900Y800307D01*
X4282290Y806178D01*
X4284044Y812727D01*
Y819507D01*
X4283890Y820082D01*
X4330814Y867006D01*
X4334130Y871968D01*
X4335294Y877820D01*
Y1109099D01*
X4335810Y1109397D01*
X4340604Y1114190D01*
X4343993Y1120062D01*
X4345748Y1126610D01*
Y1133390D01*
X4343993Y1139938D01*
X4340604Y1145810D01*
X4335810Y1150603D01*
X4329938Y1153993D01*
X4323390Y1155748D01*
D02*
G37*
G36*
X5562771Y928898D02*
X5547229D01*
X5531986Y925866D01*
X5517628Y919918D01*
X5504706Y911284D01*
X5493716Y900294D01*
X5485082Y887372D01*
X5479134Y873014D01*
X5476102Y857771D01*
Y842229D01*
X5479134Y826986D01*
X5485082Y812628D01*
X5493716Y799706D01*
X5504706Y788716D01*
X5517628Y780082D01*
X5531986Y774134D01*
X5547229Y771102D01*
X5562771D01*
X5578014Y774134D01*
X5592372Y780082D01*
X5605294Y788716D01*
X5616284Y799706D01*
X5624918Y812628D01*
X5630866Y826986D01*
X5633898Y842229D01*
Y857771D01*
X5630866Y873014D01*
X5624918Y887372D01*
X5616284Y900294D01*
X5605294Y911284D01*
X5592372Y919918D01*
X5578014Y925866D01*
X5562771Y928898D01*
D02*
G37*
G36*
X132771D02*
X117229D01*
X101986Y925866D01*
X87628Y919918D01*
X74706Y911284D01*
X63716Y900294D01*
X55082Y887372D01*
X49134Y873014D01*
X46102Y857771D01*
Y842229D01*
X49134Y826986D01*
X55082Y812628D01*
X63716Y799706D01*
X74706Y788716D01*
X87628Y780082D01*
X101986Y774134D01*
X117229Y771102D01*
X132771D01*
X148014Y774134D01*
X162372Y780082D01*
X175294Y788716D01*
X186284Y799706D01*
X194918Y812628D01*
X200866Y826986D01*
X203898Y842229D01*
Y857771D01*
X200866Y873014D01*
X194918Y887372D01*
X186284Y900294D01*
X175294Y911284D01*
X162372Y919918D01*
X148014Y925866D01*
X132771Y928898D01*
D02*
G37*
G36*
X595385Y772008D02*
X584615D01*
X574211Y769220D01*
X564883Y763835D01*
X557267Y756219D01*
X551882Y746891D01*
X549095Y736488D01*
Y725717D01*
X551882Y715313D01*
X557267Y705986D01*
X564883Y698370D01*
X574211Y692985D01*
X584615Y690197D01*
X595385D01*
X605789Y692985D01*
X615117Y698370D01*
X622733Y705986D01*
X628118Y715313D01*
X630905Y725717D01*
Y736488D01*
X628118Y746891D01*
X622733Y756219D01*
X615117Y763835D01*
X605789Y769220D01*
X595385Y772008D01*
D02*
G37*
G36*
X430906D02*
X349094D01*
Y690197D01*
X430906D01*
Y772008D01*
D02*
G37*
G36*
X4705516Y570243D02*
X4692776D01*
X4680470Y566945D01*
X4669437Y560575D01*
X4660428Y551566D01*
X4654058Y540533D01*
X4650761Y528227D01*
Y515487D01*
X4654058Y503181D01*
X4660428Y492147D01*
X4669437Y483139D01*
X4680470Y476768D01*
X4692776Y473471D01*
X4705516D01*
X4717823Y476768D01*
X4728856Y483139D01*
X4737865Y492147D01*
X4744235Y503181D01*
X4747532Y515487D01*
Y528227D01*
X4744235Y540533D01*
X4737865Y551566D01*
X4728856Y560575D01*
X4717823Y566945D01*
X4705516Y570243D01*
D02*
G37*
G36*
X2822906D02*
X2810166D01*
X2797860Y566945D01*
X2786826Y560575D01*
X2777817Y551566D01*
X2771447Y540533D01*
X2768150Y528227D01*
Y515487D01*
X2771447Y503181D01*
X2777817Y492147D01*
X2786826Y483139D01*
X2797860Y476768D01*
X2810166Y473471D01*
X2822906D01*
X2835212Y476768D01*
X2846245Y483139D01*
X2855254Y492147D01*
X2861624Y503181D01*
X2864921Y515487D01*
Y528227D01*
X2861624Y540533D01*
X2855254Y551566D01*
X2846245Y560575D01*
X2835212Y566945D01*
X2822906Y570243D01*
D02*
G37*
G36*
X4324639Y570495D02*
X4286253D01*
X4278632Y569491D01*
X4271530Y566550D01*
X4265432Y561870D01*
X4260753Y555772D01*
X4257811Y548671D01*
X4256808Y541050D01*
Y502664D01*
X4257811Y495043D01*
X4260753Y487942D01*
X4265432Y481843D01*
X4271530Y477164D01*
X4278632Y474222D01*
X4286253Y473219D01*
X4324639D01*
X4332259Y474222D01*
X4339361Y477164D01*
X4345459Y481843D01*
X4350138Y487942D01*
X4353080Y495043D01*
X4354083Y502664D01*
Y541050D01*
X4353080Y548671D01*
X4350138Y555772D01*
X4345459Y561870D01*
X4339361Y566550D01*
X4332259Y569491D01*
X4324639Y570495D01*
D02*
G37*
G36*
X2442028D02*
X2403642D01*
X2396021Y569491D01*
X2388919Y566550D01*
X2382821Y561870D01*
X2378142Y555772D01*
X2375200Y548671D01*
X2374197Y541050D01*
Y502664D01*
X2375200Y495043D01*
X2378142Y487942D01*
X2382821Y481843D01*
X2388919Y477164D01*
X2396021Y474222D01*
X2403642Y473219D01*
X2442028D01*
X2449648Y474222D01*
X2456750Y477164D01*
X2462848Y481843D01*
X2467528Y487942D01*
X2470469Y495043D01*
X2471472Y502664D01*
Y541050D01*
X2470469Y548671D01*
X2467528Y555772D01*
X2462848Y561870D01*
X2456750Y566550D01*
X2449648Y569491D01*
X2442028Y570495D01*
D02*
G37*
G36*
X1251603Y549101D02*
X1168611D01*
Y466109D01*
X1251603D01*
Y549101D01*
D02*
G37*
G36*
X1691093Y548228D02*
X1608101D01*
Y465236D01*
X1691093D01*
Y548228D01*
D02*
G37*
G36*
X5504296Y508110D02*
X5485704D01*
X5467342Y505202D01*
X5449661Y499457D01*
X5433097Y491017D01*
X5418056Y480089D01*
X5404911Y466944D01*
X5393983Y451903D01*
X5385543Y435339D01*
X5379798Y417658D01*
X5376890Y399296D01*
Y380704D01*
X5379798Y362342D01*
X5385543Y344661D01*
X5393983Y328097D01*
X5404911Y313056D01*
X5418056Y299911D01*
X5433097Y288983D01*
X5449661Y280543D01*
X5467342Y274798D01*
X5485704Y271890D01*
X5504296D01*
X5522658Y274798D01*
X5540339Y280543D01*
X5556903Y288983D01*
X5571944Y299911D01*
X5585089Y313056D01*
X5596017Y328097D01*
X5604457Y344661D01*
X5610202Y362342D01*
X5613110Y380704D01*
Y399296D01*
X5610202Y417658D01*
X5604457Y435339D01*
X5596017Y451903D01*
X5585089Y466944D01*
X5571944Y480089D01*
X5556903Y491017D01*
X5540339Y499457D01*
X5522658Y505202D01*
X5504296Y508110D01*
D02*
G37*
%LPD*%
G36*
X4254337Y2085966D02*
X4233665Y2065294D01*
X3985473D01*
X3978984Y2071783D01*
X3979138Y2072358D01*
Y2079138D01*
X3977383Y2085686D01*
X3976835Y2086636D01*
X3979335Y2090966D01*
X4252266D01*
X4254337Y2085966D01*
D02*
G37*
G36*
X5315824Y1285824D02*
X5315000Y1285000D01*
X5060508D01*
X5059271Y1287142D01*
X5054477Y1291936D01*
X5048606Y1295326D01*
X5042057Y1297081D01*
X5035278D01*
X5028729Y1295326D01*
X5022858Y1291936D01*
X5018064Y1287142D01*
X5016827Y1285000D01*
X4146181D01*
X4143390Y1285748D01*
X4136610D01*
X4133819Y1285000D01*
X1840000D01*
Y1409983D01*
X5315824D01*
Y1285824D01*
D02*
G37*
D28*
X140000Y4895000D02*
D03*
X5495000D02*
D03*
Y390000D02*
D03*
D46*
X5060000Y2560000D02*
Y2723470D01*
X5132220Y2795691D01*
X248608Y1331392D02*
Y1439831D01*
Y1331392D02*
X250000Y1330000D01*
X248608Y1439831D02*
X273777Y1465000D01*
X274388Y1465612D01*
X4320000Y877820D02*
Y1130000D01*
X4258296Y816117D02*
X4320000Y877820D01*
X458608Y1395000D02*
X505000D01*
X2915000Y2195000D02*
X3512306D01*
X2500000Y2610000D02*
X2915000Y2195000D01*
X1410000Y2610000D02*
X2500000D01*
X3005000Y2315000D02*
X3430000D01*
X2975000Y2285000D02*
X3005000Y2315000D01*
X2980000Y2335000D02*
X3447694D01*
X2930000Y2285000D02*
X2980000Y2335000D01*
X1110000Y2310000D02*
X1410000Y2610000D01*
X760000Y2310000D02*
X1110000D01*
X3448346Y1703346D02*
X3565000Y1820000D01*
X3450000Y1476939D02*
Y1589316D01*
X3448346Y1590969D02*
X3450000Y1589316D01*
X3448346Y1590969D02*
Y1703346D01*
X915000Y2006098D02*
X1059348Y2150446D01*
X915000Y1530000D02*
Y2006098D01*
X3881042Y2056388D02*
X3930914Y2106260D01*
X4256260D01*
X4804703Y2654703D01*
X4828797Y2638797D02*
X4909489D01*
X4240000Y2050000D02*
X4828797Y2638797D01*
X3979138Y2050000D02*
X4240000D01*
X280000Y1216392D02*
X458608Y1395000D01*
X2241654Y1478346D02*
X3160837D01*
X3169183Y1470000D01*
X2240561Y1479439D02*
X2241654Y1478346D01*
X2825000Y1930000D02*
X3665000D01*
X2748195Y1853196D02*
X2825000Y1930000D01*
X2663742Y1825833D02*
X2832633Y1994725D01*
X2993096D01*
X3475000Y2030000D02*
X3510000Y1995000D01*
X2100866Y2030000D02*
X3475000D01*
X1655866Y2475000D02*
X2100866Y2030000D01*
X3080000Y2145000D02*
X3490135D01*
X3716788Y1918346D02*
X4235551D01*
X3490135Y2145000D02*
X3716788Y1918346D01*
X3762306Y1945000D02*
X5570000D01*
X3512306Y2195000D02*
X3762306Y1945000D01*
X3195887Y2480887D02*
X3200000Y2485000D01*
X3180887Y2480887D02*
X3195887D01*
X3080000Y2380000D02*
X3180887Y2480887D01*
X4235551Y1918346D02*
X4304449Y1849449D01*
X2475833Y1825833D02*
X2663742D01*
X3008390Y2400748D02*
X3166815Y2559173D01*
X3008390Y2373390D02*
Y2400748D01*
X3447694Y2335000D02*
X3703954Y2078740D01*
X3430000Y2315000D02*
X3650000Y2095000D01*
X3166815Y2559173D02*
X3198122D01*
X3602402Y1566606D02*
X3615000Y1554008D01*
Y1550000D02*
Y1554008D01*
X3602402Y1566606D02*
Y1885000D01*
X3460000Y2560000D02*
X3600000Y2420000D01*
X3380000Y2560000D02*
X3460000D01*
X3881042Y2019465D02*
Y2056388D01*
X3953390Y2075748D02*
X3979138Y2050000D01*
X525000Y1360000D02*
X560000Y1395000D01*
X525000Y1060000D02*
Y1360000D01*
X280000Y920000D02*
Y1216392D01*
X4965000Y1520000D02*
X5245000D01*
X2270000Y1630000D02*
X2270490Y1629510D01*
X3083529D01*
X3084019Y1629019D01*
X4099526Y1643491D02*
X4913491D01*
X4915000Y1645000D01*
X4098017Y1641983D02*
X4099526Y1643491D01*
X714803Y2355197D02*
X760000Y2310000D01*
X4113061Y1476939D02*
X4117500Y1472500D01*
X5007500D01*
X5010000Y1470000D01*
X3450000Y1476939D02*
X4113061D01*
X3169183Y1470000D02*
X3443061D01*
X3450000Y1476939D01*
X3125000Y1515000D02*
X3295000D01*
X2815000Y1850000D02*
X3095000D01*
X5210000Y890000D02*
Y1140000D01*
X5150000Y830000D02*
X5210000Y890000D01*
X5080000Y1154183D02*
X5095000Y1139183D01*
X5080000Y1154183D02*
Y1160000D01*
X5095000Y885000D02*
Y1139183D01*
X4160000Y1150000D02*
X4197074Y1112926D01*
Y883278D02*
Y1112926D01*
X3379159Y879159D02*
Y1128301D01*
X3320000Y820000D02*
X3379159Y879159D01*
X3225000Y1150000D02*
X3258181Y1116819D01*
Y877967D02*
Y1116819D01*
X2440000Y885000D02*
Y1125000D01*
X2380000Y825000D02*
X2440000Y885000D01*
X2270000Y1145000D02*
X2309961Y1105039D01*
Y869961D02*
Y1105039D01*
X3703954Y2078740D02*
X3758740D01*
X2145000Y2473583D02*
X2538583Y2080000D01*
X3420000D01*
X4804703Y2654703D02*
X4869703D01*
X4893858Y2678858D01*
X3565000Y1820000D02*
Y1885000D01*
X3635000Y1845000D02*
X3695000Y1785000D01*
X4505000D01*
X3675000Y2155000D02*
Y2635000D01*
D48*
X1264288Y1757749D02*
X1588921D01*
X971538Y1465000D02*
X1264288Y1757749D01*
X273777Y1465000D02*
X820000D01*
X210000Y3042584D02*
X2088991Y4921575D01*
X820000Y1465000D02*
X821804Y1463196D01*
Y1108196D02*
Y1463196D01*
X820000Y1465000D02*
X971538D01*
X748608Y1035000D02*
X821804Y1108196D01*
X210000Y1530000D02*
Y3042584D01*
Y1530000D02*
X274388Y1465612D01*
X700000Y565000D02*
Y918750D01*
Y565000D02*
X930000Y335000D01*
X3210000Y470000D02*
Y1100000D01*
X3075000Y335000D02*
X3210000Y470000D01*
X2265000Y450000D02*
Y1095000D01*
X2150000Y335000D02*
X2265000Y450000D01*
X2150000Y335000D02*
X3075000D01*
X4010000D01*
X930000D02*
X2150000D01*
X4145000Y470000D02*
Y1105000D01*
X4010000Y335000D02*
X4145000Y470000D01*
X4010000Y335000D02*
X4920000D01*
X5045000Y460000D02*
Y1115000D01*
X4920000Y335000D02*
X5045000Y460000D01*
D49*
X815000Y2130000D02*
D03*
X915000Y2130000D02*
D03*
X615000Y2130000D02*
D03*
X715000D02*
D03*
X815000Y1530000D02*
D03*
X915000D02*
D03*
X615000D02*
D03*
X715000D02*
D03*
X515000Y2130000D02*
D03*
X415000Y2130000D02*
D03*
X315000Y2130000D02*
D03*
Y1530000D02*
D03*
X515000D02*
D03*
X415000D02*
D03*
X890000Y4920000D02*
D03*
X990000D02*
D03*
X690000D02*
D03*
X790000D02*
D03*
X1090000D02*
D03*
X1190000D02*
D03*
X2190000D02*
D03*
X2090000D02*
D03*
X1490000D02*
D03*
X1590000D02*
D03*
X1290000D02*
D03*
X1390000D02*
D03*
X1890000D02*
D03*
X1990000D02*
D03*
X1690000D02*
D03*
X1790000D02*
D03*
D50*
X710000Y2475000D02*
D03*
X610000Y2475000D02*
D03*
X710000Y2375000D02*
D03*
X610000D02*
D03*
X510000Y2475000D02*
D03*
X1846447Y506732D02*
D03*
X1406957Y507605D02*
D03*
D51*
X510000Y2375000D02*
D03*
D52*
X390000Y2755000D02*
D03*
X390000Y4920000D02*
D03*
X4050000D02*
D03*
Y2755000D02*
D03*
X125000Y850000D02*
D03*
X5555000D02*
D03*
Y4345000D02*
D03*
X125000D02*
D03*
D53*
X2422835Y521857D02*
D03*
X4305446D02*
D03*
D54*
X2619685D02*
D03*
X2816536D02*
D03*
X3013386D02*
D03*
X4502296D02*
D03*
X4699146D02*
D03*
X4895997D02*
D03*
D55*
X1649597Y506732D02*
D03*
X1210107Y507605D02*
D03*
D56*
X390000Y731102D02*
D03*
D57*
X490000D02*
D03*
X590000D02*
D03*
D58*
X5580000Y1300000D02*
D03*
X115000Y345000D02*
D03*
D59*
X1539043Y1757175D02*
D03*
X1588921Y1757749D02*
D03*
X5060000Y2560000D02*
D03*
X5132220Y2795691D02*
D03*
X5195000Y2597500D02*
D03*
Y2510000D02*
D03*
Y2685000D02*
D03*
X250000Y1330000D02*
D03*
X4258296Y816117D02*
D03*
X5150000Y830000D02*
D03*
X505000Y1395000D02*
D03*
X2975000Y2285000D02*
D03*
X2930000D02*
D03*
X1265000Y2330000D02*
D03*
X1205000D02*
D03*
X3800000Y1735000D02*
D03*
X3640000Y1770000D02*
D03*
X3475000Y1665000D02*
D03*
X1059348Y2150446D02*
D03*
X1130000Y2050000D02*
D03*
X3198122Y2559173D02*
D03*
X3380000Y2560000D02*
D03*
X3200000Y2485000D02*
D03*
X2170000Y1780000D02*
D03*
X1605000Y960000D02*
D03*
X565000Y1395000D02*
D03*
X2795000Y1505000D02*
D03*
X2713333D02*
D03*
X2631667D02*
D03*
X2550000D02*
D03*
X3260000Y1890000D02*
D03*
X3345000D02*
D03*
X4420000Y1870000D02*
D03*
X2993096Y1994725D02*
D03*
X3665000Y1930000D02*
D03*
X3080000Y2380000D02*
D03*
Y2145000D02*
D03*
X4035000Y1945000D02*
D03*
X4304449Y1849449D02*
D03*
X2475833Y1825833D02*
D03*
X3008390Y2373390D02*
D03*
X3140000Y2275000D02*
D03*
X3665000Y1550000D02*
D03*
X3612500D02*
D03*
X3602402Y1885000D02*
D03*
X3881042Y2019465D02*
D03*
X3953390Y2075748D02*
D03*
X525000Y1060000D02*
D03*
X748608Y1035000D02*
D03*
X643608Y1380315D02*
D03*
X738608D02*
D03*
X5245000Y1520000D02*
D03*
X1466667Y1635000D02*
D03*
X1395000D02*
D03*
X1323333D02*
D03*
X1520000Y2050000D02*
D03*
X1465000D02*
D03*
X1815000Y1700000D02*
D03*
X570000Y1150000D02*
D03*
X700000Y918750D02*
D03*
X280000Y920000D02*
D03*
X248608Y1140000D02*
D03*
Y1205000D02*
D03*
X1165000Y955000D02*
D03*
X4015000Y2010000D02*
D03*
X5570000Y1945000D02*
D03*
Y2190000D02*
D03*
X2270000Y1630000D02*
D03*
X4915000Y1645000D02*
D03*
X3985000Y2515000D02*
D03*
X3600000Y2420000D02*
D03*
X4115000Y1475000D02*
D03*
X3175000Y1470000D02*
D03*
X3295000Y1515000D02*
D03*
X3125000D02*
D03*
X4965000Y1520000D02*
D03*
X4715000Y1310000D02*
D03*
X4650000D02*
D03*
X4775000D02*
D03*
X2905000D02*
D03*
X2780000D02*
D03*
X2845000D02*
D03*
X1945000Y1315000D02*
D03*
Y1380000D02*
D03*
X1880000Y1315000D02*
D03*
Y1380000D02*
D03*
X2815000Y1850000D02*
D03*
X3095000D02*
D03*
X5010000Y1470000D02*
D03*
X4912137Y2592137D02*
D03*
X2215000Y2570000D02*
D03*
X3882938Y445000D02*
D03*
X3613859Y450577D02*
D03*
X3805716Y1519216D02*
D03*
X4865590Y1784829D02*
D03*
X5350715Y1544128D02*
D03*
X5210000Y1140000D02*
D03*
X5095000Y885000D02*
D03*
X5080000Y1160000D02*
D03*
X4320000Y1130000D02*
D03*
X4197074Y883278D02*
D03*
X4160000Y1150000D02*
D03*
X3379159Y1128301D02*
D03*
X3320000Y820000D02*
D03*
X3258181Y877967D02*
D03*
X3225000Y1150000D02*
D03*
X2380000Y825000D02*
D03*
X2440000Y1125000D02*
D03*
X2309961Y869961D02*
D03*
X2270000Y1145000D02*
D03*
X2266456Y1241184D02*
D03*
X3200838Y1245839D02*
D03*
X4140000Y1260000D02*
D03*
X5038667Y1271333D02*
D03*
X5084128Y1556079D02*
D03*
X3758740Y2078740D02*
D03*
X3650000Y2095000D02*
D03*
X2145000Y2473583D02*
D03*
X1655866Y2475000D02*
D03*
X3510000Y1995000D02*
D03*
X3420000Y2080000D02*
D03*
X2265000Y1095000D02*
D03*
X3210000Y1100000D02*
D03*
X4145000Y1105000D02*
D03*
X5045000Y1115000D02*
D03*
X3735000Y2210000D02*
D03*
X4176339Y2326339D02*
D03*
X3175000Y1890000D02*
D03*
X4740000Y945000D02*
D03*
X3860000Y940000D02*
D03*
X2925000Y935000D02*
D03*
X1980000Y925000D02*
D03*
X2570000Y985000D02*
D03*
X3510000Y990000D02*
D03*
X4440000D02*
D03*
X5330000Y995000D02*
D03*
X4865000Y1525000D02*
D03*
X3975000Y1530000D02*
D03*
X3030000Y1520000D02*
D03*
X2090000Y1535000D02*
D03*
X3005000Y1775000D02*
D03*
X4635000Y1515000D02*
D03*
X4553333D02*
D03*
X4471667D02*
D03*
X4390000D02*
D03*
X2665000Y1745000D02*
D03*
X3084019Y1629019D02*
D03*
X4098017Y1641983D02*
D03*
X2240561Y1479439D02*
D03*
X3565000Y1885000D02*
D03*
X3635000Y1845000D02*
D03*
X3675000Y2155000D02*
D03*
Y2635000D02*
D03*
X4893858Y2678858D02*
D03*
X4909489Y2638797D02*
D03*
X4505000Y1785000D02*
D03*
X2748195Y1853196D02*
D03*
%TF.MD5,62bda477bcf9e4b6cd648a2b29ed284c*%
M02*
