%TF.GenerationSoftware,Altium Limited,Altium Designer,25.1.2 (22)*%
G04 Layer_Color=32896*
%FSLAX26Y26*%
%MOIN*%
%TF.SameCoordinates,F7076460-2797-427A-AE81-16C54333DA03*%
%TF.FilePolarity,Positive*%
%TF.FileFunction,Legend,Bot*%
%TF.Part,Single*%
G01*
G75*
%TA.AperFunction,NonConductor*%
%ADD66C,0.010000*%
D66*
X209979Y4744990D02*
X249966D01*
Y4715000D01*
X229972D01*
X249966D01*
Y4685010D01*
X189985Y4744990D02*
X169992D01*
X179989D01*
Y4685010D01*
X189985D01*
X169992D01*
X140002Y4744990D02*
Y4685010D01*
X110011D01*
X100014Y4695007D01*
Y4734993D01*
X110011Y4744990D01*
X140002D01*
X40034D02*
X80021D01*
Y4715000D01*
X60028Y4724997D01*
X50031D01*
X40034Y4715000D01*
Y4695007D01*
X50031Y4685010D01*
X70024D01*
X80021Y4695007D01*
X5584979Y4744990D02*
X5624966D01*
Y4715000D01*
X5604972D01*
X5624966D01*
Y4685010D01*
X5564985Y4744990D02*
X5544992D01*
X5554989D01*
Y4685010D01*
X5564985D01*
X5544992D01*
X5515002Y4744990D02*
Y4685010D01*
X5485011D01*
X5475015Y4695007D01*
Y4734993D01*
X5485011Y4744990D01*
X5515002D01*
X5415034D02*
X5435028Y4734993D01*
X5455021Y4715000D01*
Y4695007D01*
X5445024Y4685010D01*
X5425031D01*
X5415034Y4695007D01*
Y4705003D01*
X5425031Y4715000D01*
X5455021D01*
X5563013Y597981D02*
X5603000D01*
Y567990D01*
X5583007D01*
X5603000D01*
Y538000D01*
X5543019Y597981D02*
X5523026D01*
X5533023D01*
Y538000D01*
X5543019D01*
X5523026D01*
X5493036Y597981D02*
Y538000D01*
X5463045D01*
X5453048Y547997D01*
Y587984D01*
X5463045Y597981D01*
X5493036D01*
X5403065Y538000D02*
Y597981D01*
X5433055Y567990D01*
X5393068D01*
%TF.MD5,5793b6bc48b84fd823eb98c4f4efcf3a*%
M02*
