%TF.GenerationSoftware,Altium Limited,Altium Designer,25.1.2 (22)*%
G04 Layer_Color=8388736*
%FSLAX26Y26*%
%MOIN*%
%TF.SameCoordinates,F7076460-2797-427A-AE81-16C54333DA03*%
%TF.FilePolarity,Negative*%
%TF.FileFunction,Soldermask,Top*%
%TF.Part,Single*%
G01*
G75*
%TA.AperFunction,SMDPad,CuDef*%
%ADD10O,0.031496X0.011811*%
%ADD11R,0.043307X0.041339*%
%ADD12R,0.037402X0.037402*%
%ADD13R,0.041339X0.043307*%
%ADD14R,0.062992X0.013780*%
G04:AMPARAMS|DCode=15|XSize=57.636mil|YSize=14.796mil|CornerRadius=7.398mil|HoleSize=0mil|Usage=FLASHONLY|Rotation=90.000|XOffset=0mil|YOffset=0mil|HoleType=Round|Shape=RoundedRectangle|*
%AMROUNDEDRECTD15*
21,1,0.057636,0.000000,0,0,90.0*
21,1,0.042840,0.014796,0,0,90.0*
1,1,0.014796,0.000000,0.021420*
1,1,0.014796,0.000000,-0.021420*
1,1,0.014796,0.000000,-0.021420*
1,1,0.014796,0.000000,0.021420*
%
%ADD15ROUNDEDRECTD15*%
%ADD16R,0.014796X0.057636*%
%ADD17C,0.039370*%
%ADD18R,0.031496X0.037402*%
%ADD19R,0.037402X0.037402*%
%ADD20O,0.076772X0.023622*%
%ADD21O,0.023622X0.076772*%
%ADD22R,0.082677X0.055118*%
%ADD23R,0.047244X0.045276*%
G04:AMPARAMS|DCode=24|XSize=125.984mil|YSize=68.898mil|CornerRadius=2.067mil|HoleSize=0mil|Usage=FLASHONLY|Rotation=90.000|XOffset=0mil|YOffset=0mil|HoleType=Round|Shape=RoundedRectangle|*
%AMROUNDEDRECTD24*
21,1,0.125984,0.064764,0,0,90.0*
21,1,0.121850,0.068898,0,0,90.0*
1,1,0.004134,0.032382,0.060925*
1,1,0.004134,0.032382,-0.060925*
1,1,0.004134,-0.032382,-0.060925*
1,1,0.004134,-0.032382,0.060925*
%
%ADD24ROUNDEDRECTD24*%
G04:AMPARAMS|DCode=25|XSize=35.433mil|YSize=68.898mil|CornerRadius=1.949mil|HoleSize=0mil|Usage=FLASHONLY|Rotation=90.000|XOffset=0mil|YOffset=0mil|HoleType=Round|Shape=RoundedRectangle|*
%AMROUNDEDRECTD25*
21,1,0.035433,0.065000,0,0,90.0*
21,1,0.031535,0.068898,0,0,90.0*
1,1,0.003898,0.032500,0.015768*
1,1,0.003898,0.032500,-0.015768*
1,1,0.003898,-0.032500,-0.015768*
1,1,0.003898,-0.032500,0.015768*
%
%ADD25ROUNDEDRECTD25*%
%ADD26R,0.017716X0.057087*%
%ADD27R,0.074803X0.102362*%
%ADD29C,0.118110*%
%ADD30R,0.033500X0.106000*%
%ADD31R,0.035433X0.023622*%
%ADD32R,0.045276X0.047244*%
%ADD33R,0.053150X0.064961*%
%ADD34R,0.022000X0.057500*%
%ADD35R,0.011811X0.026378*%
%ADD36R,0.059055X0.062992*%
%ADD37R,0.047244X0.047244*%
%ADD38O,0.078740X0.011811*%
%ADD39R,0.017716X0.013780*%
%ADD40R,0.013780X0.017716*%
%ADD41R,0.084646X0.068898*%
%ADD42R,0.055000X0.035000*%
%ADD43R,0.080000X0.045000*%
%ADD44R,0.027559X0.025591*%
%ADD45R,0.064961X0.053150*%
%TA.AperFunction,ComponentPad*%
%ADD49C,0.059843*%
%ADD50C,0.062992*%
G04:AMPARAMS|DCode=51|XSize=62.992mil|YSize=62.992mil|CornerRadius=15.748mil|HoleSize=0mil|Usage=FLASHONLY|Rotation=0.000|XOffset=0mil|YOffset=0mil|HoleType=Round|Shape=RoundedRectangle|*
%AMROUNDEDRECTD51*
21,1,0.062992,0.031496,0,0,0.0*
21,1,0.031496,0.062992,0,0,0.0*
1,1,0.031496,0.015748,-0.015748*
1,1,0.031496,-0.015748,-0.015748*
1,1,0.031496,-0.015748,0.015748*
1,1,0.031496,0.015748,0.015748*
%
%ADD51ROUNDEDRECTD51*%
%ADD52C,0.137795*%
G04:AMPARAMS|DCode=53|XSize=76.772mil|YSize=76.772mil|CornerRadius=19.193mil|HoleSize=0mil|Usage=FLASHONLY|Rotation=0.000|XOffset=0mil|YOffset=0mil|HoleType=Round|Shape=RoundedRectangle|*
%AMROUNDEDRECTD53*
21,1,0.076772,0.038386,0,0,0.0*
21,1,0.038386,0.076772,0,0,0.0*
1,1,0.038386,0.019193,-0.019193*
1,1,0.038386,-0.019193,-0.019193*
1,1,0.038386,-0.019193,0.019193*
1,1,0.038386,0.019193,0.019193*
%
%ADD53ROUNDEDRECTD53*%
%ADD54C,0.076772*%
%ADD55R,0.062992X0.062992*%
%ADD56R,0.061811X0.061811*%
%ADD57C,0.061811*%
%ADD58C,0.082677*%
%TA.AperFunction,FiducialPad,Global*%
%ADD69C,0.236220*%
D10*
X1132008Y2149528D02*
D03*
Y2129843D02*
D03*
X1132008Y2110157D02*
D03*
Y2090472D02*
D03*
X1257992Y2149528D02*
D03*
Y2129843D02*
D03*
Y2110157D02*
D03*
Y2090472D02*
D03*
D11*
X5060551Y2500000D02*
D03*
X5129449D02*
D03*
X3324449Y2560000D02*
D03*
X3255551D02*
D03*
Y2485000D02*
D03*
X3324449D02*
D03*
X1547110Y2570000D02*
D03*
X1478212D02*
D03*
X1965551D02*
D03*
X2034449D02*
D03*
X2443983D02*
D03*
X2512881D02*
D03*
X4241102Y1570000D02*
D03*
X4310000D02*
D03*
X3256102Y2415000D02*
D03*
X3325000D02*
D03*
X4745551Y990000D02*
D03*
X4814449D02*
D03*
X3976699Y1398468D02*
D03*
X4045597D02*
D03*
X2406936Y1775084D02*
D03*
X2475833D02*
D03*
X5060551Y2680000D02*
D03*
X5129449Y2680000D02*
D03*
X5060551Y2746693D02*
D03*
X5129449D02*
D03*
X294159Y1265000D02*
D03*
X363057D02*
D03*
X294159Y1205000D02*
D03*
X363057D02*
D03*
X5255551Y1210000D02*
D03*
X5324449D02*
D03*
X2490551Y1125000D02*
D03*
X2559449D02*
D03*
X1980551Y1195000D02*
D03*
X2049449D02*
D03*
X1980551Y975000D02*
D03*
X2049449D02*
D03*
X3430551Y1130000D02*
D03*
X3499449D02*
D03*
X2925551Y1200000D02*
D03*
X2994449D02*
D03*
X2926102Y1130000D02*
D03*
X2995000D02*
D03*
X3865551Y985000D02*
D03*
X3934449D02*
D03*
X3102881Y1398468D02*
D03*
X3033983D02*
D03*
X4774449Y1565000D02*
D03*
X4705551D02*
D03*
X3934449Y1205000D02*
D03*
X3865551D02*
D03*
X4814449Y1210000D02*
D03*
X4745551D02*
D03*
X5324449Y1140000D02*
D03*
X5255551D02*
D03*
X4436614Y1131496D02*
D03*
X4367716D02*
D03*
X4368267Y1201496D02*
D03*
X4437165D02*
D03*
X2860551Y1555000D02*
D03*
X2929449D02*
D03*
X2410551D02*
D03*
X2479449D02*
D03*
X2994449Y985000D02*
D03*
X2925551D02*
D03*
X3430551Y1200000D02*
D03*
X3499449D02*
D03*
X1980551Y1125000D02*
D03*
X2049449D02*
D03*
X2490551Y1195000D02*
D03*
X2559449D02*
D03*
X3864999Y1132677D02*
D03*
X3933897D02*
D03*
X2162881Y1398468D02*
D03*
X2093983D02*
D03*
X4745551Y1140000D02*
D03*
X4814449D02*
D03*
X4931991Y1398468D02*
D03*
X4863094D02*
D03*
X4235551Y1785000D02*
D03*
X4304449D02*
D03*
D12*
X354055Y1325000D02*
D03*
X295000D02*
D03*
D13*
X5150000Y890551D02*
D03*
Y959449D02*
D03*
X5000000Y885551D02*
D03*
Y954449D02*
D03*
X4930000D02*
D03*
Y885551D02*
D03*
X4257716Y950394D02*
D03*
Y881496D02*
D03*
X1205000Y2274449D02*
D03*
Y2205551D02*
D03*
X4250000Y2165000D02*
D03*
Y2096102D02*
D03*
X1068022Y1127283D02*
D03*
Y1196181D02*
D03*
X3615000Y635551D02*
D03*
Y704449D02*
D03*
X3882194Y635551D02*
D03*
Y704449D02*
D03*
X3320000Y880551D02*
D03*
Y949449D02*
D03*
X3170000Y875551D02*
D03*
Y944449D02*
D03*
X3100000Y875551D02*
D03*
X3100000Y944449D02*
D03*
X4037716Y882047D02*
D03*
Y950945D02*
D03*
X505000Y1334449D02*
D03*
Y1265551D02*
D03*
X2227720Y938858D02*
D03*
Y869961D02*
D03*
X2157720Y938858D02*
D03*
Y869961D02*
D03*
X1507401Y1134685D02*
D03*
Y1203583D02*
D03*
X3255000Y1990551D02*
D03*
Y2059449D02*
D03*
X3095000Y1990551D02*
D03*
Y2059449D02*
D03*
X4170000Y2096102D02*
D03*
Y2165000D02*
D03*
X4112716Y951496D02*
D03*
Y882599D02*
D03*
X4778432Y1641983D02*
D03*
Y1710880D02*
D03*
X4233432Y1641983D02*
D03*
Y1710880D02*
D03*
X2938432Y1629019D02*
D03*
Y1697917D02*
D03*
X2398432Y1629019D02*
D03*
Y1697917D02*
D03*
X2377720Y943858D02*
D03*
Y874961D02*
D03*
D14*
X4257716Y1132677D02*
D03*
Y1183858D02*
D03*
X4257716Y1158268D02*
D03*
Y1107087D02*
D03*
X4257716Y1081496D02*
D03*
X4257716Y1055906D02*
D03*
X4257716Y1030315D02*
D03*
X4037245Y1158268D02*
D03*
Y1107087D02*
D03*
X4037245Y1132677D02*
D03*
Y1183858D02*
D03*
X4037245Y1055906D02*
D03*
X4037245Y1030315D02*
D03*
Y1081496D02*
D03*
X5150471Y1140591D02*
D03*
Y1191772D02*
D03*
Y1166181D02*
D03*
Y1115000D02*
D03*
Y1089409D02*
D03*
Y1063819D02*
D03*
Y1038228D02*
D03*
X4930000Y1140591D02*
D03*
Y1115000D02*
D03*
Y1166181D02*
D03*
Y1191772D02*
D03*
Y1063819D02*
D03*
Y1038228D02*
D03*
Y1089409D02*
D03*
X3099529Y1053228D02*
D03*
Y1078819D02*
D03*
Y1027638D02*
D03*
Y1155591D02*
D03*
Y1104409D02*
D03*
Y1130000D02*
D03*
Y1181181D02*
D03*
X3320000Y1027638D02*
D03*
Y1053228D02*
D03*
Y1078819D02*
D03*
Y1104409D02*
D03*
Y1155591D02*
D03*
Y1181181D02*
D03*
Y1130000D02*
D03*
X2157484Y1073819D02*
D03*
Y1022638D02*
D03*
Y1048228D02*
D03*
Y1176181D02*
D03*
Y1150591D02*
D03*
Y1099409D02*
D03*
Y1125000D02*
D03*
X2377956Y1022638D02*
D03*
Y1048228D02*
D03*
Y1073819D02*
D03*
Y1125000D02*
D03*
Y1099409D02*
D03*
Y1150591D02*
D03*
Y1176181D02*
D03*
D15*
X5064258Y1412583D02*
D03*
X5038667Y1412583D02*
D03*
X5038667Y1348009D02*
D03*
X5064258D02*
D03*
X5013077Y1412583D02*
D03*
X4140000Y1342713D02*
D03*
X4165591D02*
D03*
Y1407287D02*
D03*
X4140000D02*
D03*
X4114409D02*
D03*
X2140591Y1630000D02*
D03*
X2115000D02*
D03*
X2089410Y1694575D02*
D03*
X2140590D02*
D03*
X5104409Y1642713D02*
D03*
X5155591D02*
D03*
X5104409Y1707287D02*
D03*
X5130000D02*
D03*
X3175248Y1403826D02*
D03*
X3200838D02*
D03*
X3226429D02*
D03*
Y1339251D02*
D03*
X3200838D02*
D03*
X2240561Y1400105D02*
D03*
X2266152D02*
D03*
X2291742D02*
D03*
Y1335531D02*
D03*
X2266152D02*
D03*
D16*
X5013077Y1348009D02*
D03*
X4114409Y1342713D02*
D03*
X2089410Y1630000D02*
D03*
X5155591Y1707287D02*
D03*
X3175248Y1339251D02*
D03*
X2240561Y1335531D02*
D03*
D17*
X4212064Y1251729D02*
D03*
X5118602Y1259983D02*
D03*
X3277207Y1248268D02*
D03*
X3160000Y1630000D02*
D03*
X4025000Y1640000D02*
D03*
X3140619Y1248268D02*
D03*
X2202668Y1243268D02*
D03*
X2330297Y1244547D02*
D03*
X4959042Y1259685D02*
D03*
X4078206Y1251729D02*
D03*
D18*
X3514410Y1620000D02*
D03*
X3565591D02*
D03*
X3514410Y1667402D02*
D03*
X3565591D02*
D03*
D19*
X1265000Y2274528D02*
D03*
Y2215472D02*
D03*
D20*
X3847323Y2263740D02*
D03*
Y2232244D02*
D03*
Y2295236D02*
D03*
X3847323Y2169252D02*
D03*
Y2137756D02*
D03*
Y2200748D02*
D03*
X3847323Y2106260D02*
D03*
Y2074764D02*
D03*
X3512677Y2137756D02*
D03*
Y2263740D02*
D03*
Y2232244D02*
D03*
X3512677Y2295236D02*
D03*
X3512677Y2200748D02*
D03*
Y2169252D02*
D03*
X3512677Y2106260D02*
D03*
Y2074764D02*
D03*
D21*
X3790236Y2352323D02*
D03*
X3695748D02*
D03*
X3727244D02*
D03*
X3664252D02*
D03*
X3758740D02*
D03*
X3695748Y2017677D02*
D03*
X3758740D02*
D03*
X3790236D02*
D03*
X3727244D02*
D03*
X3601260Y2352323D02*
D03*
X3632756D02*
D03*
X3569764D02*
D03*
X3632756Y2017677D02*
D03*
X3664252D02*
D03*
X3569764D02*
D03*
X3601260D02*
D03*
D22*
X2440866Y2296417D02*
D03*
X2799134D02*
D03*
X2440866Y2473583D02*
D03*
X2799134D02*
D03*
X1965866D02*
D03*
X1965866Y2296417D02*
D03*
X2324134Y2296417D02*
D03*
Y2473583D02*
D03*
X1835000Y2475000D02*
D03*
X1476732D02*
D03*
X1835000Y2297835D02*
D03*
X1476732D02*
D03*
D23*
X2114449Y1780000D02*
D03*
X2045551D02*
D03*
X4089449Y2595000D02*
D03*
X4020552D02*
D03*
X3441102Y1890000D02*
D03*
X3510000D02*
D03*
X5060551Y2615000D02*
D03*
X5129449D02*
D03*
X2860551Y1775000D02*
D03*
X2929449D02*
D03*
X4705551Y1785000D02*
D03*
X4774449D02*
D03*
X5130551Y1555000D02*
D03*
X5199449Y1555000D02*
D03*
X3730551Y1785000D02*
D03*
X3799449D02*
D03*
X1981102Y1050000D02*
D03*
X2050000D02*
D03*
X294820Y1144291D02*
D03*
X363718D02*
D03*
X2490551Y1050000D02*
D03*
X2559449D02*
D03*
X3865551Y1060000D02*
D03*
X3934449D02*
D03*
X4370551Y1055000D02*
D03*
X4439449D02*
D03*
X4745551Y1065000D02*
D03*
X4814449D02*
D03*
X5257520D02*
D03*
X5326417D02*
D03*
X2925551Y1060000D02*
D03*
X2994449D02*
D03*
X3430000Y1055000D02*
D03*
X3498898D02*
D03*
X3874288Y2597480D02*
D03*
X3943185D02*
D03*
X3033983Y1473468D02*
D03*
X3102881D02*
D03*
X2093983D02*
D03*
X2162881D02*
D03*
X4863094D02*
D03*
X4931992D02*
D03*
X3976148D02*
D03*
X4045045D02*
D03*
D24*
X1808032Y1915000D02*
D03*
D25*
X1561968D02*
D03*
Y2005551D02*
D03*
Y1824449D02*
D03*
D26*
X4947500Y2742284D02*
D03*
X4972500D02*
D03*
X4922500Y2742283D02*
D03*
X4847500Y2742284D02*
D03*
X4872500D02*
D03*
X4822500D02*
D03*
X4897500D02*
D03*
X4972500Y2527717D02*
D03*
X4947500D02*
D03*
X4847500D02*
D03*
X4872500D02*
D03*
X4822500D02*
D03*
X4922500D02*
D03*
X4897500D02*
D03*
X4797500Y2742284D02*
D03*
X4722500D02*
D03*
X4772500D02*
D03*
X4697500D02*
D03*
X4747500Y2742283D02*
D03*
X4772500Y2527717D02*
D03*
X4797500D02*
D03*
X4697500D02*
D03*
X4747500D02*
D03*
X4722500D02*
D03*
D27*
X3903894Y2477480D02*
D03*
X4073185D02*
D03*
D29*
X1590000Y1670000D02*
D03*
X110000Y620000D02*
D03*
X5590000Y1620000D02*
D03*
X805000Y920000D02*
D03*
D30*
X676141Y1064996D02*
D03*
X575641D02*
D03*
D31*
X4760830Y2202352D02*
D03*
Y2261407D02*
D03*
X4910000Y2205472D02*
D03*
Y2264528D02*
D03*
X4637519Y2202352D02*
D03*
Y2261407D02*
D03*
X4484519Y2202351D02*
D03*
X4484519Y2261406D02*
D03*
X4365000Y2259528D02*
D03*
X4365000Y2200472D02*
D03*
X5295000Y2205472D02*
D03*
Y2264528D02*
D03*
X3615000Y510472D02*
D03*
Y569528D02*
D03*
X4355000Y3084528D02*
D03*
Y3025472D02*
D03*
X4475748Y3084528D02*
D03*
Y3025472D02*
D03*
X4628749Y3084528D02*
D03*
Y3025472D02*
D03*
X4752059Y3084527D02*
D03*
X4752059Y3025472D02*
D03*
X4905000Y3084528D02*
D03*
Y3025472D02*
D03*
X5020000Y3025472D02*
D03*
X5020000Y3084528D02*
D03*
X5165000D02*
D03*
Y3025472D02*
D03*
X5290000Y3084055D02*
D03*
Y3025000D02*
D03*
X5028770Y2202351D02*
D03*
Y2261406D02*
D03*
X5173770Y2202352D02*
D03*
Y2261407D02*
D03*
X3882194Y569528D02*
D03*
Y510473D02*
D03*
D32*
X2478432Y1629019D02*
D03*
Y1697917D02*
D03*
X2858432Y1629019D02*
D03*
Y1697917D02*
D03*
X2708244Y1559019D02*
D03*
Y1627917D02*
D03*
X2783432Y1559571D02*
D03*
Y1628468D02*
D03*
X2553432Y1559571D02*
D03*
Y1628468D02*
D03*
X2629782Y1559571D02*
D03*
Y1628468D02*
D03*
X4308432Y1641983D02*
D03*
Y1710880D02*
D03*
X4703432Y1642534D02*
D03*
Y1711431D02*
D03*
X4548432Y1571983D02*
D03*
Y1640880D02*
D03*
X4628432Y1571983D02*
D03*
Y1640880D02*
D03*
X4383432Y1571983D02*
D03*
Y1640880D02*
D03*
X4468432Y1571983D02*
D03*
Y1640880D02*
D03*
X565000Y1265551D02*
D03*
Y1334449D02*
D03*
X3330000Y1981102D02*
D03*
Y2050000D02*
D03*
X3255000Y2275551D02*
D03*
Y2344449D02*
D03*
X3170000Y1990551D02*
D03*
Y2059449D02*
D03*
X3805716Y1567666D02*
D03*
Y1636563D02*
D03*
X4090000Y2095551D02*
D03*
Y2164449D02*
D03*
X1465000Y1755551D02*
D03*
X1465000Y1824449D02*
D03*
X1460000Y1915551D02*
D03*
Y1984449D02*
D03*
X1507401Y964685D02*
D03*
Y1033583D02*
D03*
X1068022Y957283D02*
D03*
Y1026181D02*
D03*
X3330000Y2130551D02*
D03*
Y2199449D02*
D03*
X4015000Y2245551D02*
D03*
X4015000Y2314449D02*
D03*
Y2100551D02*
D03*
X4015000Y2169449D02*
D03*
X3330000Y2275551D02*
D03*
X3330000Y2344449D02*
D03*
D33*
X281592Y1074291D02*
D03*
X364269D02*
D03*
D34*
X1163022Y814482D02*
D03*
X1213022D02*
D03*
X1163022Y1028982D02*
D03*
X1213022D02*
D03*
X1263022Y814482D02*
D03*
X1313022D02*
D03*
X1263022Y1028982D02*
D03*
X1313022D02*
D03*
X1602401Y819134D02*
D03*
X1652401D02*
D03*
X1602401Y1033634D02*
D03*
X1652401D02*
D03*
X1702402Y819134D02*
D03*
X1752401D02*
D03*
X1702402Y1033634D02*
D03*
X1752401D02*
D03*
D35*
X483923Y1204134D02*
D03*
Y1145866D02*
D03*
X523293D02*
D03*
X503608D02*
D03*
X523293Y1204134D02*
D03*
X503608D02*
D03*
D36*
X1625315Y1199134D02*
D03*
X5222913Y1670000D02*
D03*
X1185935Y1196732D02*
D03*
X2017087Y1660000D02*
D03*
D37*
X1753268Y1159764D02*
D03*
Y1238504D02*
D03*
X5350866Y1630630D02*
D03*
Y1709370D02*
D03*
X1313888Y1157362D02*
D03*
Y1236102D02*
D03*
X1889134Y1699370D02*
D03*
Y1620630D02*
D03*
D38*
X2582841Y1716029D02*
D03*
Y1775084D02*
D03*
Y1794769D02*
D03*
Y1755399D02*
D03*
Y1735714D02*
D03*
X2748195D02*
D03*
X2748195Y1716029D02*
D03*
X2748195Y1755399D02*
D03*
X2748195Y1775084D02*
D03*
Y1794769D02*
D03*
X4419329Y1725840D02*
D03*
Y1784895D02*
D03*
Y1804580D02*
D03*
Y1765210D02*
D03*
Y1745525D02*
D03*
X4584683D02*
D03*
X4584683Y1725840D02*
D03*
X4584683Y1765210D02*
D03*
X4584683Y1784895D02*
D03*
Y1804580D02*
D03*
D39*
X3639220Y1639019D02*
D03*
Y1658704D02*
D03*
Y1678389D02*
D03*
X3735677Y1639019D02*
D03*
Y1658704D02*
D03*
Y1678389D02*
D03*
D40*
X3648078Y1610475D02*
D03*
X3667764D02*
D03*
Y1706932D02*
D03*
X3648078Y1706932D02*
D03*
X3687448Y1610475D02*
D03*
X3726819D02*
D03*
X3707133D02*
D03*
X3687448Y1706932D02*
D03*
X3707133D02*
D03*
X3726819Y1706932D02*
D03*
D41*
X738608Y1199291D02*
D03*
Y1321339D02*
D03*
X643962D02*
D03*
Y1199291D02*
D03*
D42*
X5570000Y1882047D02*
D03*
Y2137953D02*
D03*
D43*
X595000Y917500D02*
D03*
Y812500D02*
D03*
X395000D02*
D03*
Y917500D02*
D03*
D44*
X3255000Y2200512D02*
D03*
Y2139488D02*
D03*
D45*
X4100000Y2243661D02*
D03*
Y2326339D02*
D03*
X1335000Y1826339D02*
D03*
Y1743661D02*
D03*
D49*
X815000Y2130000D02*
D03*
X915000Y2130000D02*
D03*
X615000Y2130000D02*
D03*
X715000D02*
D03*
X815000Y1530000D02*
D03*
X915000D02*
D03*
X615000D02*
D03*
X715000D02*
D03*
X515000Y2130000D02*
D03*
X415000Y2130000D02*
D03*
X315000Y2130000D02*
D03*
Y1530000D02*
D03*
X515000D02*
D03*
X415000D02*
D03*
X890000Y4920000D02*
D03*
X990000D02*
D03*
X690000D02*
D03*
X790000D02*
D03*
X1090000D02*
D03*
X1190000D02*
D03*
X2190000D02*
D03*
X2090000D02*
D03*
X1490000D02*
D03*
X1590000D02*
D03*
X1290000D02*
D03*
X1390000D02*
D03*
X1890000D02*
D03*
X1990000D02*
D03*
X1690000D02*
D03*
X1790000D02*
D03*
D50*
X710000Y2475000D02*
D03*
X610000Y2475000D02*
D03*
X710000Y2375000D02*
D03*
X610000D02*
D03*
X510000Y2475000D02*
D03*
X1846447Y506732D02*
D03*
X1406957Y507605D02*
D03*
D51*
X510000Y2375000D02*
D03*
D52*
X390000Y2755000D02*
D03*
X390000Y4920000D02*
D03*
X4050000D02*
D03*
Y2755000D02*
D03*
X125000Y850000D02*
D03*
X5555000D02*
D03*
Y4345000D02*
D03*
X125000D02*
D03*
D53*
X2422835Y521857D02*
D03*
X4305446D02*
D03*
D54*
X2619685D02*
D03*
X2816536D02*
D03*
X3013386D02*
D03*
X4502296D02*
D03*
X4699146D02*
D03*
X4895997D02*
D03*
D55*
X1649597Y506732D02*
D03*
X1210107Y507605D02*
D03*
D56*
X390000Y731102D02*
D03*
D57*
X490000D02*
D03*
X590000D02*
D03*
D58*
X5580000Y1300000D02*
D03*
X115000Y345000D02*
D03*
D69*
X5495000Y4895000D02*
D03*
Y390000D02*
D03*
X140000Y4895000D02*
D03*
%TF.MD5,8b5c4e2c3114b8770b70272e1ff2a27d*%
M02*
