%TF.GenerationSoftware,Altium Limited,Altium Designer,25.1.2 (22)*%
G04 Layer_Color=16711935*
%FSLAX26Y26*%
%MOIN*%
%TF.SameCoordinates,F7076460-2797-427A-AE81-16C54333DA03*%
%TF.FilePolarity,Negative*%
%TF.FileFunction,Soldermask,Bot*%
%TF.Part,Single*%
G01*
G75*
%TA.AperFunction,ComponentPad*%
%ADD49C,0.059843*%
%ADD50C,0.062992*%
G04:AMPARAMS|DCode=51|XSize=62.992mil|YSize=62.992mil|CornerRadius=15.748mil|HoleSize=0mil|Usage=FLASHONLY|Rotation=0.000|XOffset=0mil|YOffset=0mil|HoleType=Round|Shape=RoundedRectangle|*
%AMROUNDEDRECTD51*
21,1,0.062992,0.031496,0,0,0.0*
21,1,0.031496,0.062992,0,0,0.0*
1,1,0.031496,0.015748,-0.015748*
1,1,0.031496,-0.015748,-0.015748*
1,1,0.031496,-0.015748,0.015748*
1,1,0.031496,0.015748,0.015748*
%
%ADD51ROUNDEDRECTD51*%
%ADD52C,0.137795*%
G04:AMPARAMS|DCode=53|XSize=76.772mil|YSize=76.772mil|CornerRadius=19.193mil|HoleSize=0mil|Usage=FLASHONLY|Rotation=0.000|XOffset=0mil|YOffset=0mil|HoleType=Round|Shape=RoundedRectangle|*
%AMROUNDEDRECTD53*
21,1,0.076772,0.038386,0,0,0.0*
21,1,0.038386,0.076772,0,0,0.0*
1,1,0.038386,0.019193,-0.019193*
1,1,0.038386,-0.019193,-0.019193*
1,1,0.038386,-0.019193,0.019193*
1,1,0.038386,0.019193,0.019193*
%
%ADD53ROUNDEDRECTD53*%
%ADD54C,0.076772*%
%ADD55R,0.062992X0.062992*%
%ADD56R,0.061811X0.061811*%
%ADD57C,0.061811*%
%ADD58C,0.082677*%
%TA.AperFunction,FiducialPad,Global*%
%ADD69C,0.236220*%
D49*
X815000Y2130000D02*
D03*
X915000Y2130000D02*
D03*
X615000Y2130000D02*
D03*
X715000D02*
D03*
X815000Y1530000D02*
D03*
X915000D02*
D03*
X615000D02*
D03*
X715000D02*
D03*
X515000Y2130000D02*
D03*
X415000Y2130000D02*
D03*
X315000Y2130000D02*
D03*
Y1530000D02*
D03*
X515000D02*
D03*
X415000D02*
D03*
X890000Y4920000D02*
D03*
X990000D02*
D03*
X690000D02*
D03*
X790000D02*
D03*
X1090000D02*
D03*
X1190000D02*
D03*
X2190000D02*
D03*
X2090000D02*
D03*
X1490000D02*
D03*
X1590000D02*
D03*
X1290000D02*
D03*
X1390000D02*
D03*
X1890000D02*
D03*
X1990000D02*
D03*
X1690000D02*
D03*
X1790000D02*
D03*
D50*
X710000Y2475000D02*
D03*
X610000Y2475000D02*
D03*
X710000Y2375000D02*
D03*
X610000D02*
D03*
X510000Y2475000D02*
D03*
X1846447Y506732D02*
D03*
X1406957Y507605D02*
D03*
D51*
X510000Y2375000D02*
D03*
D52*
X390000Y2755000D02*
D03*
X390000Y4920000D02*
D03*
X4050000D02*
D03*
Y2755000D02*
D03*
X125000Y850000D02*
D03*
X5555000D02*
D03*
Y4345000D02*
D03*
X125000D02*
D03*
D53*
X2422835Y521857D02*
D03*
X4305446D02*
D03*
D54*
X2619685D02*
D03*
X2816536D02*
D03*
X3013386D02*
D03*
X4502296D02*
D03*
X4699146D02*
D03*
X4895997D02*
D03*
D55*
X1649597Y506732D02*
D03*
X1210107Y507605D02*
D03*
D56*
X390000Y731102D02*
D03*
D57*
X490000D02*
D03*
X590000D02*
D03*
D58*
X5580000Y1300000D02*
D03*
X115000Y345000D02*
D03*
D69*
X140000Y4895000D02*
D03*
X5495000D02*
D03*
Y390000D02*
D03*
%TF.MD5,7781eea99b567f6c175ad2e6b9b2b29c*%
M02*
