%TF.GenerationSoftware,Altium Limited,Altium Designer,25.1.2 (22)*%
G04 Layer_Color=0*
%FSLAX26Y26*%
%MOIN*%
%TF.SameCoordinates,F7076460-2797-427A-AE81-16C54333DA03*%
%TF.FilePolarity,Positive*%
%TF.FileFunction,Plated,1,2,PTH,Drill*%
%TF.Part,Single*%
G01*
G75*
%TA.AperFunction,ComponentDrill*%
%ADD71C,0.040157*%
%ADD72C,0.043307*%
%ADD73C,0.137795*%
%ADD74C,0.040157*%
%ADD75C,0.051181*%
%ADD76C,0.062992*%
%TA.AperFunction,ViaDrill,NotFilled*%
%ADD77C,0.019685*%
D71*
X815000Y2130000D02*
D03*
X915000Y2130000D02*
D03*
X615000Y2130000D02*
D03*
X715000D02*
D03*
X815000Y1530000D02*
D03*
X915000D02*
D03*
X615000D02*
D03*
X715000D02*
D03*
X515000Y2130000D02*
D03*
X415000Y2130000D02*
D03*
X315000Y2130000D02*
D03*
Y1530000D02*
D03*
X515000D02*
D03*
X415000D02*
D03*
D72*
X710000Y2475000D02*
D03*
X610000Y2475000D02*
D03*
X710000Y2375000D02*
D03*
X610000D02*
D03*
X510000Y2475000D02*
D03*
Y2375000D02*
D03*
X1649597Y506732D02*
D03*
X1846447D02*
D03*
X1406957Y507605D02*
D03*
X1210107D02*
D03*
D73*
X390000Y2755000D02*
D03*
X390000Y4920000D02*
D03*
X4050000D02*
D03*
Y2755000D02*
D03*
X125000Y850000D02*
D03*
X5555000D02*
D03*
Y4345000D02*
D03*
X125000D02*
D03*
D74*
X890000Y4920000D02*
D03*
X990000D02*
D03*
X690000D02*
D03*
X790000D02*
D03*
X1090000D02*
D03*
X1190000D02*
D03*
X2190000D02*
D03*
X2090000D02*
D03*
X1490000D02*
D03*
X1590000D02*
D03*
X1290000D02*
D03*
X1390000D02*
D03*
X1890000D02*
D03*
X1990000D02*
D03*
X1690000D02*
D03*
X1790000D02*
D03*
X390000Y731102D02*
D03*
X490000D02*
D03*
X590000D02*
D03*
D75*
X2422835Y521857D02*
D03*
X2619685D02*
D03*
X2816536D02*
D03*
X3013386D02*
D03*
X4305446D02*
D03*
X4502296D02*
D03*
X4699146D02*
D03*
X4895997D02*
D03*
D76*
X5580000Y1300000D02*
D03*
X115000Y345000D02*
D03*
D77*
X1539043Y1757175D02*
D03*
X1588921Y1757749D02*
D03*
X5060000Y2560000D02*
D03*
X5132220Y2795691D02*
D03*
X5195000Y2597500D02*
D03*
Y2510000D02*
D03*
Y2685000D02*
D03*
X250000Y1330000D02*
D03*
X4258296Y816117D02*
D03*
X5150000Y830000D02*
D03*
X505000Y1395000D02*
D03*
X2975000Y2285000D02*
D03*
X2930000D02*
D03*
X1265000Y2330000D02*
D03*
X1205000D02*
D03*
X3800000Y1735000D02*
D03*
X3640000Y1770000D02*
D03*
X3475000Y1665000D02*
D03*
X1059348Y2150446D02*
D03*
X1130000Y2050000D02*
D03*
X3198122Y2559173D02*
D03*
X3380000Y2560000D02*
D03*
X3200000Y2485000D02*
D03*
X2170000Y1780000D02*
D03*
X1605000Y960000D02*
D03*
X565000Y1395000D02*
D03*
X2795000Y1505000D02*
D03*
X2713333D02*
D03*
X2631667D02*
D03*
X2550000D02*
D03*
X3260000Y1890000D02*
D03*
X3345000D02*
D03*
X4420000Y1870000D02*
D03*
X2993096Y1994725D02*
D03*
X3665000Y1930000D02*
D03*
X3080000Y2380000D02*
D03*
Y2145000D02*
D03*
X4035000Y1945000D02*
D03*
X4304449Y1849449D02*
D03*
X2475833Y1825833D02*
D03*
X3008390Y2373390D02*
D03*
X3140000Y2275000D02*
D03*
X3665000Y1550000D02*
D03*
X3612500D02*
D03*
X3602402Y1885000D02*
D03*
X3881042Y2019465D02*
D03*
X3953390Y2075748D02*
D03*
X525000Y1060000D02*
D03*
X748608Y1035000D02*
D03*
X643608Y1380315D02*
D03*
X738608D02*
D03*
X5245000Y1520000D02*
D03*
X1466667Y1635000D02*
D03*
X1395000D02*
D03*
X1323333D02*
D03*
X1520000Y2050000D02*
D03*
X1465000D02*
D03*
X1815000Y1700000D02*
D03*
X570000Y1150000D02*
D03*
X700000Y918750D02*
D03*
X280000Y920000D02*
D03*
X248608Y1140000D02*
D03*
Y1205000D02*
D03*
X1165000Y955000D02*
D03*
X4015000Y2010000D02*
D03*
X5570000Y1945000D02*
D03*
Y2190000D02*
D03*
X2270000Y1630000D02*
D03*
X4915000Y1645000D02*
D03*
X3985000Y2515000D02*
D03*
X3600000Y2420000D02*
D03*
X4115000Y1475000D02*
D03*
X3175000Y1470000D02*
D03*
X3295000Y1515000D02*
D03*
X3125000D02*
D03*
X4965000Y1520000D02*
D03*
X4715000Y1310000D02*
D03*
X4650000D02*
D03*
X4775000D02*
D03*
X2905000D02*
D03*
X2780000D02*
D03*
X2845000D02*
D03*
X1945000Y1315000D02*
D03*
Y1380000D02*
D03*
X1880000Y1315000D02*
D03*
Y1380000D02*
D03*
X2815000Y1850000D02*
D03*
X3095000D02*
D03*
X5010000Y1470000D02*
D03*
X4912137Y2592137D02*
D03*
X2215000Y2570000D02*
D03*
X3882938Y445000D02*
D03*
X3613859Y450577D02*
D03*
X3805716Y1519216D02*
D03*
X4865590Y1784829D02*
D03*
X5350715Y1544128D02*
D03*
X5210000Y1140000D02*
D03*
X5095000Y885000D02*
D03*
X5080000Y1160000D02*
D03*
X4320000Y1130000D02*
D03*
X4197074Y883278D02*
D03*
X4160000Y1150000D02*
D03*
X3379159Y1128301D02*
D03*
X3320000Y820000D02*
D03*
X3258181Y877967D02*
D03*
X3225000Y1150000D02*
D03*
X2380000Y825000D02*
D03*
X2440000Y1125000D02*
D03*
X2309961Y869961D02*
D03*
X2270000Y1145000D02*
D03*
X2266456Y1241184D02*
D03*
X3200838Y1245839D02*
D03*
X4140000Y1260000D02*
D03*
X5038667Y1271333D02*
D03*
X5084128Y1556079D02*
D03*
X3758740Y2078740D02*
D03*
X3650000Y2095000D02*
D03*
X2145000Y2473583D02*
D03*
X1655866Y2475000D02*
D03*
X3510000Y1995000D02*
D03*
X3420000Y2080000D02*
D03*
X2265000Y1095000D02*
D03*
X3210000Y1100000D02*
D03*
X4145000Y1105000D02*
D03*
X5045000Y1115000D02*
D03*
X3735000Y2210000D02*
D03*
X4176339Y2326339D02*
D03*
X3175000Y1890000D02*
D03*
X4740000Y945000D02*
D03*
X3860000Y940000D02*
D03*
X2925000Y935000D02*
D03*
X1980000Y925000D02*
D03*
X2570000Y985000D02*
D03*
X3510000Y990000D02*
D03*
X4440000D02*
D03*
X5330000Y995000D02*
D03*
X4865000Y1525000D02*
D03*
X3975000Y1530000D02*
D03*
X3030000Y1520000D02*
D03*
X2090000Y1535000D02*
D03*
X3005000Y1775000D02*
D03*
X4635000Y1515000D02*
D03*
X4553333D02*
D03*
X4471667D02*
D03*
X4390000D02*
D03*
X2665000Y1745000D02*
D03*
X3084019Y1629019D02*
D03*
X4098017Y1641983D02*
D03*
X2240561Y1479439D02*
D03*
X3565000Y1885000D02*
D03*
X3635000Y1845000D02*
D03*
X3675000Y2155000D02*
D03*
Y2635000D02*
D03*
X4893858Y2678858D02*
D03*
X4909489Y2638797D02*
D03*
X4505000Y1785000D02*
D03*
X2748195Y1853196D02*
D03*
%TF.MD5,71d0a6fb82750befbe37d7d68f0792ca*%
M02*
